<mxfile host="app.diagrams.net" modified="2021-01-05T07:33:10.407Z" agent="5.0 (X11; Linux x86_64) AppleWebKit/537.36 (KHTML, like Gecko) Chrome/87.0.4280.66 Safari/537.36" etag="QvQ65conEaEpgqYubh8l" version="14.1.8" type="github" pages="5">
  <diagram name="dingtalk_openapi_ent_001" id="e7e014a7-5840-1c2e-5031-d8a46d1fe8dd">
    <mxGraphModel dx="1422" dy="737" grid="1" gridSize="10" guides="1" tooltips="1" connect="1" arrows="1" fold="1" page="1" pageScale="1" pageWidth="1920" pageHeight="1200" background="#ffffff" math="0" shadow="0">
      <root>
        <mxCell id="0" />
        <mxCell id="1" parent="0" />
        <mxCell id="iFogylqvE2eTUU4uMYc8-110" value="" style="edgeStyle=orthogonalEdgeStyle;rounded=0;orthogonalLoop=1;jettySize=auto;html=1;strokeColor=#67AB9F;" parent="1" source="iFogylqvE2eTUU4uMYc8-97" edge="1">
          <mxGeometry relative="1" as="geometry">
            <mxPoint x="352" y="322" as="targetPoint" />
            <Array as="points">
              <mxPoint x="352" y="322" />
            </Array>
          </mxGeometry>
        </mxCell>
        <mxCell id="iFogylqvE2eTUU4uMYc8-43" value=":钉钉服务端" style="shape=umlLifeline;perimeter=lifelinePerimeter;whiteSpace=wrap;html=1;container=1;collapsible=0;recursiveResize=0;outlineConnect=0;" parent="1" vertex="1">
          <mxGeometry x="80" y="90" width="130" height="630" as="geometry" />
        </mxCell>
        <mxCell id="iFogylqvE2eTUU4uMYc8-67" value="" style="html=1;points=[];perimeter=orthogonalPerimeter;" parent="iFogylqvE2eTUU4uMYc8-43" vertex="1">
          <mxGeometry x="60" y="70" width="10" height="40" as="geometry" />
        </mxCell>
        <mxCell id="iFogylqvE2eTUU4uMYc8-86" value="" style="html=1;points=[];perimeter=orthogonalPerimeter;" parent="iFogylqvE2eTUU4uMYc8-43" vertex="1">
          <mxGeometry x="60" y="132" width="10" height="60" as="geometry" />
        </mxCell>
        <mxCell id="iFogylqvE2eTUU4uMYc8-112" value="" style="html=1;points=[];perimeter=orthogonalPerimeter;" parent="iFogylqvE2eTUU4uMYc8-43" vertex="1">
          <mxGeometry x="60" y="222" width="10" height="340" as="geometry" />
        </mxCell>
        <mxCell id="iFogylqvE2eTUU4uMYc8-44" value=":微应用代理" style="shape=umlLifeline;perimeter=lifelinePerimeter;whiteSpace=wrap;html=1;container=1;collapsible=0;recursiveResize=0;outlineConnect=0;" parent="1" vertex="1">
          <mxGeometry x="280" y="90" width="130" height="630" as="geometry" />
        </mxCell>
        <mxCell id="iFogylqvE2eTUU4uMYc8-109" value="" style="html=1;points=[];perimeter=orthogonalPerimeter;" parent="iFogylqvE2eTUU4uMYc8-44" vertex="1">
          <mxGeometry x="60" y="222" width="10" height="340" as="geometry" />
        </mxCell>
        <mxCell id="iFogylqvE2eTUU4uMYc8-45" value=":微应用H5端" style="shape=umlLifeline;perimeter=lifelinePerimeter;whiteSpace=wrap;html=1;container=1;collapsible=0;recursiveResize=0;outlineConnect=0;" parent="1" vertex="1">
          <mxGeometry x="480" y="90" width="130" height="630" as="geometry" />
        </mxCell>
        <mxCell id="iFogylqvE2eTUU4uMYc8-77" value="" style="html=1;points=[];perimeter=orthogonalPerimeter;" parent="iFogylqvE2eTUU4uMYc8-45" vertex="1">
          <mxGeometry x="60" y="82" width="10" height="520" as="geometry" />
        </mxCell>
        <mxCell id="iFogylqvE2eTUU4uMYc8-143" value="获取用户信息" style="text;html=1;align=center;verticalAlign=middle;resizable=0;points=[];autosize=1;" parent="iFogylqvE2eTUU4uMYc8-45" vertex="1">
          <mxGeometry x="15" y="439" width="90" height="20" as="geometry" />
        </mxCell>
        <mxCell id="iFogylqvE2eTUU4uMYc8-46" value=":微应用服务端" style="shape=umlLifeline;perimeter=lifelinePerimeter;whiteSpace=wrap;html=1;container=1;collapsible=0;recursiveResize=0;outlineConnect=0;" parent="1" vertex="1">
          <mxGeometry x="680" y="90" width="130" height="630" as="geometry" />
        </mxCell>
        <mxCell id="iFogylqvE2eTUU4uMYc8-139" value="" style="edgeStyle=orthogonalEdgeStyle;rounded=0;orthogonalLoop=1;jettySize=auto;html=1;strokeColor=#000000;" parent="iFogylqvE2eTUU4uMYc8-46" edge="1">
          <mxGeometry relative="1" as="geometry">
            <mxPoint x="72" y="415" as="sourcePoint" />
            <mxPoint x="72" y="442" as="targetPoint" />
            <Array as="points">
              <mxPoint x="130" y="415" />
              <mxPoint x="130" y="442" />
            </Array>
          </mxGeometry>
        </mxCell>
        <mxCell id="iFogylqvE2eTUU4uMYc8-97" value="" style="html=1;points=[];perimeter=orthogonalPerimeter;" parent="iFogylqvE2eTUU4uMYc8-46" vertex="1">
          <mxGeometry x="60" y="102" width="10" height="500" as="geometry" />
        </mxCell>
        <mxCell id="iFogylqvE2eTUU4uMYc8-79" value="进入钉钉微应用（corpId）" style="text;html=1;align=center;verticalAlign=middle;resizable=0;points=[];autosize=1;" parent="1" vertex="1">
          <mxGeometry x="270" y="162" width="160" height="20" as="geometry" />
        </mxCell>
        <mxCell id="iFogylqvE2eTUU4uMYc8-88" value="获取微应用免登授权码：JSAPI（corpId）" style="text;html=1;align=center;verticalAlign=middle;resizable=0;points=[];autosize=1;" parent="1" vertex="1">
          <mxGeometry x="225" y="212" width="240" height="20" as="geometry" />
        </mxCell>
        <mxCell id="iFogylqvE2eTUU4uMYc8-90" value="" style="edgeStyle=orthogonalEdgeStyle;rounded=0;orthogonalLoop=1;jettySize=auto;html=1;strokeColor=#000000;entryX=1.4;entryY=0.213;entryDx=0;entryDy=0;entryPerimeter=0;" parent="1" source="iFogylqvE2eTUU4uMYc8-77" target="iFogylqvE2eTUU4uMYc8-86" edge="1">
          <mxGeometry relative="1" as="geometry">
            <mxPoint x="460" y="257" as="targetPoint" />
            <Array as="points">
              <mxPoint x="450" y="235" />
              <mxPoint x="450" y="235" />
            </Array>
          </mxGeometry>
        </mxCell>
        <mxCell id="iFogylqvE2eTUU4uMYc8-92" value="" style="edgeStyle=orthogonalEdgeStyle;rounded=0;orthogonalLoop=1;jettySize=auto;html=1;strokeColor=#000000;dashed=1;" parent="1" source="iFogylqvE2eTUU4uMYc8-86" edge="1">
          <mxGeometry relative="1" as="geometry">
            <mxPoint x="540" y="272" as="targetPoint" />
            <Array as="points">
              <mxPoint x="250" y="272" />
              <mxPoint x="250" y="272" />
            </Array>
          </mxGeometry>
        </mxCell>
        <mxCell id="iFogylqvE2eTUU4uMYc8-93" value="返回微应用免登授权码（auth_code）" style="text;html=1;align=center;verticalAlign=middle;resizable=0;points=[];autosize=1;" parent="1" vertex="1">
          <mxGeometry x="230" y="252" width="220" height="20" as="geometry" />
        </mxCell>
        <mxCell id="iFogylqvE2eTUU4uMYc8-105" value="" style="edgeStyle=orthogonalEdgeStyle;rounded=0;orthogonalLoop=1;jettySize=auto;html=1;strokeColor=#000000;" parent="1" source="iFogylqvE2eTUU4uMYc8-77" edge="1">
          <mxGeometry relative="1" as="geometry">
            <mxPoint x="740" y="291" as="targetPoint" />
            <Array as="points">
              <mxPoint x="740" y="291" />
            </Array>
          </mxGeometry>
        </mxCell>
        <mxCell id="iFogylqvE2eTUU4uMYc8-106" value="登录" style="text;html=1;align=center;verticalAlign=middle;resizable=0;points=[];autosize=1;" parent="1" vertex="1">
          <mxGeometry x="625" y="272" width="40" height="20" as="geometry" />
        </mxCell>
        <mxCell id="iFogylqvE2eTUU4uMYc8-111" value="获取企业凭证access_token" style="text;html=1;align=center;verticalAlign=middle;resizable=0;points=[];autosize=1;" parent="1" vertex="1">
          <mxGeometry x="450" y="302" width="160" height="20" as="geometry" />
        </mxCell>
        <mxCell id="iFogylqvE2eTUU4uMYc8-113" style="edgeStyle=orthogonalEdgeStyle;rounded=0;orthogonalLoop=1;jettySize=auto;html=1;strokeColor=#000000;" parent="1" source="iFogylqvE2eTUU4uMYc8-109" edge="1">
          <mxGeometry relative="1" as="geometry">
            <mxPoint x="153" y="326" as="targetPoint" />
            <Array as="points">
              <mxPoint x="300" y="326" />
              <mxPoint x="300" y="326" />
            </Array>
          </mxGeometry>
        </mxCell>
        <mxCell id="iFogylqvE2eTUU4uMYc8-114" value="获取企业凭证access_token" style="text;html=1;align=center;verticalAlign=middle;resizable=0;points=[];autosize=1;" parent="1" vertex="1">
          <mxGeometry x="170" y="302" width="160" height="20" as="geometry" />
        </mxCell>
        <mxCell id="iFogylqvE2eTUU4uMYc8-115" style="edgeStyle=orthogonalEdgeStyle;rounded=0;orthogonalLoop=1;jettySize=auto;html=1;strokeColor=#000000;" parent="1" source="iFogylqvE2eTUU4uMYc8-112" target="iFogylqvE2eTUU4uMYc8-109" edge="1">
          <mxGeometry relative="1" as="geometry">
            <Array as="points">
              <mxPoint x="240" y="362" />
              <mxPoint x="240" y="362" />
            </Array>
          </mxGeometry>
        </mxCell>
        <mxCell id="iFogylqvE2eTUU4uMYc8-116" value="返回企业凭证access_token" style="text;html=1;align=center;verticalAlign=middle;resizable=0;points=[];autosize=1;" parent="1" vertex="1">
          <mxGeometry x="170" y="339" width="160" height="20" as="geometry" />
        </mxCell>
        <mxCell id="iFogylqvE2eTUU4uMYc8-117" style="edgeStyle=orthogonalEdgeStyle;rounded=0;orthogonalLoop=1;jettySize=auto;html=1;strokeColor=#67AB9F;dashed=1;" parent="1" source="iFogylqvE2eTUU4uMYc8-109" edge="1">
          <mxGeometry relative="1" as="geometry">
            <mxPoint x="740" y="382" as="targetPoint" />
            <Array as="points">
              <mxPoint x="420" y="382" />
              <mxPoint x="420" y="382" />
            </Array>
          </mxGeometry>
        </mxCell>
        <mxCell id="iFogylqvE2eTUU4uMYc8-118" value="返回企业凭证access_token" style="text;html=1;align=center;verticalAlign=middle;resizable=0;points=[];autosize=1;" parent="1" vertex="1">
          <mxGeometry x="450" y="359" width="160" height="20" as="geometry" />
        </mxCell>
        <mxCell id="iFogylqvE2eTUU4uMYc8-127" value="" style="edgeStyle=orthogonalEdgeStyle;rounded=0;orthogonalLoop=1;jettySize=auto;html=1;strokeColor=#67AB9F;" parent="1" source="iFogylqvE2eTUU4uMYc8-97" edge="1">
          <mxGeometry relative="1" as="geometry">
            <mxPoint x="352" y="428" as="targetPoint" />
            <Array as="points">
              <mxPoint x="352" y="428" />
            </Array>
          </mxGeometry>
        </mxCell>
        <mxCell id="iFogylqvE2eTUU4uMYc8-128" value="获取用户userid（corp_access_token,auth_code）" style="text;html=1;align=center;verticalAlign=middle;resizable=0;points=[];autosize=1;" parent="1" vertex="1">
          <mxGeometry x="400" y="402" width="280" height="20" as="geometry" />
        </mxCell>
        <mxCell id="iFogylqvE2eTUU4uMYc8-130" value="" style="edgeStyle=orthogonalEdgeStyle;rounded=0;orthogonalLoop=1;jettySize=auto;html=1;" parent="1" edge="1">
          <mxGeometry relative="1" as="geometry">
            <mxPoint x="340" y="442" as="sourcePoint" />
            <mxPoint x="152" y="442" as="targetPoint" />
            <Array as="points">
              <mxPoint x="280" y="442" />
              <mxPoint x="280" y="442" />
            </Array>
          </mxGeometry>
        </mxCell>
        <mxCell id="iFogylqvE2eTUU4uMYc8-131" value="获取用户userid" style="text;html=1;align=center;verticalAlign=middle;resizable=0;points=[];autosize=1;" parent="1" vertex="1">
          <mxGeometry x="190" y="418" width="100" height="20" as="geometry" />
        </mxCell>
        <mxCell id="iFogylqvE2eTUU4uMYc8-133" value="" style="edgeStyle=orthogonalEdgeStyle;rounded=0;orthogonalLoop=1;jettySize=auto;html=1;strokeColor=#000000;" parent="1" source="iFogylqvE2eTUU4uMYc8-112" edge="1">
          <mxGeometry relative="1" as="geometry">
            <mxPoint x="340" y="472" as="targetPoint" />
            <Array as="points">
              <mxPoint x="340" y="472" />
            </Array>
          </mxGeometry>
        </mxCell>
        <mxCell id="iFogylqvE2eTUU4uMYc8-134" value="返回用户userid" style="text;html=1;align=center;verticalAlign=middle;resizable=0;points=[];autosize=1;" parent="1" vertex="1">
          <mxGeometry x="190" y="450" width="100" height="20" as="geometry" />
        </mxCell>
        <mxCell id="iFogylqvE2eTUU4uMYc8-136" value="" style="edgeStyle=orthogonalEdgeStyle;rounded=0;orthogonalLoop=1;jettySize=auto;html=1;dashed=1;strokeColor=#67AB9F;" parent="1" source="iFogylqvE2eTUU4uMYc8-109" edge="1">
          <mxGeometry relative="1" as="geometry">
            <mxPoint x="740" y="492" as="targetPoint" />
            <Array as="points">
              <mxPoint x="440" y="492" />
              <mxPoint x="440" y="492" />
            </Array>
          </mxGeometry>
        </mxCell>
        <mxCell id="iFogylqvE2eTUU4uMYc8-137" value="返回用户userid" style="text;html=1;align=center;verticalAlign=middle;resizable=0;points=[];autosize=1;" parent="1" vertex="1">
          <mxGeometry x="490" y="466" width="100" height="20" as="geometry" />
        </mxCell>
        <mxCell id="iFogylqvE2eTUU4uMYc8-140" value="验签用户身份" style="text;html=1;align=center;verticalAlign=middle;resizable=0;points=[];autosize=1;" parent="1" vertex="1">
          <mxGeometry x="804" y="508" width="90" height="20" as="geometry" />
        </mxCell>
        <mxCell id="iFogylqvE2eTUU4uMYc8-142" value="" style="edgeStyle=orthogonalEdgeStyle;rounded=0;orthogonalLoop=1;jettySize=auto;html=1;strokeColor=#67AB9F;" parent="1" source="iFogylqvE2eTUU4uMYc8-97" edge="1">
          <mxGeometry relative="1" as="geometry">
            <mxPoint x="351" y="552" as="targetPoint" />
            <Array as="points">
              <mxPoint x="351" y="552" />
            </Array>
          </mxGeometry>
        </mxCell>
        <mxCell id="iFogylqvE2eTUU4uMYc8-144" value="" style="edgeStyle=orthogonalEdgeStyle;rounded=0;orthogonalLoop=1;jettySize=auto;html=1;" parent="1" source="iFogylqvE2eTUU4uMYc8-109" edge="1">
          <mxGeometry relative="1" as="geometry">
            <mxPoint x="152" y="572" as="targetPoint" />
            <Array as="points">
              <mxPoint x="152" y="572" />
            </Array>
          </mxGeometry>
        </mxCell>
        <mxCell id="iFogylqvE2eTUU4uMYc8-145" value="获取用户信息" style="text;html=1;align=center;verticalAlign=middle;resizable=0;points=[];autosize=1;" parent="1" vertex="1">
          <mxGeometry x="210" y="545" width="90" height="20" as="geometry" />
        </mxCell>
        <mxCell id="iFogylqvE2eTUU4uMYc8-146" value="" style="edgeStyle=orthogonalEdgeStyle;rounded=0;orthogonalLoop=1;jettySize=auto;html=1;dashed=1;" parent="1" source="iFogylqvE2eTUU4uMYc8-112" edge="1">
          <mxGeometry relative="1" as="geometry">
            <mxPoint x="340" y="612" as="targetPoint" />
            <Array as="points">
              <mxPoint x="340" y="612" />
            </Array>
          </mxGeometry>
        </mxCell>
        <mxCell id="iFogylqvE2eTUU4uMYc8-148" value="" style="edgeStyle=orthogonalEdgeStyle;rounded=0;orthogonalLoop=1;jettySize=auto;html=1;dashed=1;strokeColor=#67AB9F;" parent="1" source="iFogylqvE2eTUU4uMYc8-109" edge="1">
          <mxGeometry relative="1" as="geometry">
            <mxPoint x="739" y="630" as="targetPoint" />
            <Array as="points">
              <mxPoint x="440" y="630" />
              <mxPoint x="440" y="630" />
            </Array>
          </mxGeometry>
        </mxCell>
        <mxCell id="iFogylqvE2eTUU4uMYc8-149" value="返回用户信息" style="text;html=1;align=center;verticalAlign=middle;resizable=0;points=[];autosize=1;" parent="1" vertex="1">
          <mxGeometry x="200" y="587" width="90" height="20" as="geometry" />
        </mxCell>
        <mxCell id="iFogylqvE2eTUU4uMYc8-150" value="返回用户信息" style="text;html=1;align=center;verticalAlign=middle;resizable=0;points=[];autosize=1;" parent="1" vertex="1">
          <mxGeometry x="495" y="602" width="90" height="20" as="geometry" />
        </mxCell>
        <mxCell id="iFogylqvE2eTUU4uMYc8-152" value="" style="edgeStyle=orthogonalEdgeStyle;rounded=0;orthogonalLoop=1;jettySize=auto;html=1;dashed=1;entryX=1;entryY=0.974;entryDx=0;entryDy=0;entryPerimeter=0;" parent="1" source="iFogylqvE2eTUU4uMYc8-97" target="iFogylqvE2eTUU4uMYc8-77" edge="1">
          <mxGeometry relative="1" as="geometry">
            <mxPoint x="660" y="442" as="targetPoint" />
            <Array as="points">
              <mxPoint x="700" y="679" />
              <mxPoint x="700" y="679" />
            </Array>
          </mxGeometry>
        </mxCell>
        <mxCell id="iFogylqvE2eTUU4uMYc8-153" value="登录成功，重定向页面" style="text;html=1;align=center;verticalAlign=middle;resizable=0;points=[];autosize=1;" parent="1" vertex="1">
          <mxGeometry x="575" y="652" width="140" height="20" as="geometry" />
        </mxCell>
        <mxCell id="ozE3ekxXH5V31ykZUYcG-1" value="&lt;b&gt;钉钉开放平台第三方企业微应用之企业员工免登录业务流程&lt;/b&gt;" style="text;html=1;align=left;verticalAlign=middle;resizable=0;points=[];autosize=1;" parent="1" vertex="1">
          <mxGeometry x="80" y="40" width="330" height="20" as="geometry" />
        </mxCell>
        <mxCell id="QotLAJqEf01hJXJy_Xmf-2" value="" style="edgeStyle=orthogonalEdgeStyle;rounded=0;orthogonalLoop=1;jettySize=auto;html=1;" parent="1" source="iFogylqvE2eTUU4uMYc8-67" edge="1">
          <mxGeometry relative="1" as="geometry">
            <mxPoint x="540" y="180" as="targetPoint" />
            <Array as="points">
              <mxPoint x="480" y="180" />
              <mxPoint x="480" y="180" />
            </Array>
          </mxGeometry>
        </mxCell>
        <mxCell id="QotLAJqEf01hJXJy_Xmf-3" value="微应用代理：根据钉钉开放平台第三方企业微应用接入规范，钉钉微应用服务端与钉钉系统之间需要有一个部署在聚石塔上的代理程序来做数据中转。" style="text;html=1;align=left;verticalAlign=middle;resizable=0;points=[];autosize=1;" parent="1" vertex="1">
          <mxGeometry x="120" y="770" width="810" height="20" as="geometry" />
        </mxCell>
      </root>
    </mxGraphModel>
  </diagram>
  <diagram id="vPzD-Wpo7etqd_KNEoi4" name="dingtalk_openapi_ent_002">
    <mxGraphModel dx="1422" dy="737" grid="1" gridSize="10" guides="1" tooltips="1" connect="1" arrows="1" fold="1" page="1" pageScale="1" pageWidth="1200" pageHeight="1920" math="0" shadow="0">
      <root>
        <mxCell id="lzIYmvuplW2zlDW2XlVa-0" />
        <mxCell id="lzIYmvuplW2zlDW2XlVa-1" parent="lzIYmvuplW2zlDW2XlVa-0" />
        <mxCell id="ROyWMD74HyqL_B-godrN-1" value="&lt;b&gt;企业开通流程&lt;/b&gt;" style="text;html=1;strokeColor=none;fillColor=none;align=left;verticalAlign=middle;whiteSpace=wrap;rounded=0;" vertex="1" parent="lzIYmvuplW2zlDW2XlVa-1">
          <mxGeometry x="40" y="40" width="90" height="20" as="geometry" />
        </mxCell>
        <mxCell id="ROyWMD74HyqL_B-godrN-3" value="企业" style="shape=umlLifeline;perimeter=lifelinePerimeter;whiteSpace=wrap;html=1;container=1;collapsible=0;recursiveResize=0;outlineConnect=0;" vertex="1" parent="lzIYmvuplW2zlDW2XlVa-1">
          <mxGeometry x="40" y="80" width="100" height="520" as="geometry" />
        </mxCell>
        <mxCell id="ROyWMD74HyqL_B-godrN-8" value="" style="html=1;points=[];perimeter=orthogonalPerimeter;" vertex="1" parent="ROyWMD74HyqL_B-godrN-3">
          <mxGeometry x="45" y="80" width="10" height="80" as="geometry" />
        </mxCell>
        <mxCell id="ROyWMD74HyqL_B-godrN-4" value="钉钉开放平台" style="shape=umlLifeline;perimeter=lifelinePerimeter;whiteSpace=wrap;html=1;container=1;collapsible=0;recursiveResize=0;outlineConnect=0;" vertex="1" parent="lzIYmvuplW2zlDW2XlVa-1">
          <mxGeometry x="280" y="80" width="100" height="520" as="geometry" />
        </mxCell>
        <mxCell id="ROyWMD74HyqL_B-godrN-9" value="" style="html=1;points=[];perimeter=orthogonalPerimeter;" vertex="1" parent="ROyWMD74HyqL_B-godrN-4">
          <mxGeometry x="45" y="80" width="10" height="80" as="geometry" />
        </mxCell>
        <mxCell id="ROyWMD74HyqL_B-godrN-5" value="聚石塔代理" style="shape=umlLifeline;perimeter=lifelinePerimeter;whiteSpace=wrap;html=1;container=1;collapsible=0;recursiveResize=0;outlineConnect=0;" vertex="1" parent="lzIYmvuplW2zlDW2XlVa-1">
          <mxGeometry x="520" y="80" width="100" height="520" as="geometry" />
        </mxCell>
        <mxCell id="ROyWMD74HyqL_B-godrN-12" value="" style="html=1;points=[];perimeter=orthogonalPerimeter;" vertex="1" parent="ROyWMD74HyqL_B-godrN-5">
          <mxGeometry x="45" y="110" width="10" height="370" as="geometry" />
        </mxCell>
        <mxCell id="ROyWMD74HyqL_B-godrN-10" value="" style="edgeStyle=orthogonalEdgeStyle;rounded=0;orthogonalLoop=1;jettySize=auto;html=1;" edge="1" parent="lzIYmvuplW2zlDW2XlVa-1" source="ROyWMD74HyqL_B-godrN-8" target="ROyWMD74HyqL_B-godrN-9">
          <mxGeometry relative="1" as="geometry">
            <Array as="points">
              <mxPoint x="220" y="170" />
              <mxPoint x="220" y="170" />
            </Array>
          </mxGeometry>
        </mxCell>
        <mxCell id="ROyWMD74HyqL_B-godrN-11" value="管理员授权开通第三方应用" style="text;html=1;align=center;verticalAlign=middle;resizable=0;points=[];autosize=1;" vertex="1" parent="lzIYmvuplW2zlDW2XlVa-1">
          <mxGeometry x="130" y="140" width="160" height="20" as="geometry" />
        </mxCell>
        <mxCell id="ROyWMD74HyqL_B-godrN-13" value="" style="edgeStyle=orthogonalEdgeStyle;rounded=0;orthogonalLoop=1;jettySize=auto;html=1;dashed=1;" edge="1" parent="lzIYmvuplW2zlDW2XlVa-1" source="ROyWMD74HyqL_B-godrN-9" target="ROyWMD74HyqL_B-godrN-12">
          <mxGeometry relative="1" as="geometry">
            <Array as="points">
              <mxPoint x="510" y="200" />
              <mxPoint x="510" y="200" />
            </Array>
          </mxGeometry>
        </mxCell>
        <mxCell id="ROyWMD74HyqL_B-godrN-14" value="RDS推送企业授权信息" style="text;html=1;align=center;verticalAlign=middle;resizable=0;points=[];autosize=1;" vertex="1" parent="lzIYmvuplW2zlDW2XlVa-1">
          <mxGeometry x="380" y="170" width="140" height="20" as="geometry" />
        </mxCell>
        <mxCell id="ROyWMD74HyqL_B-godrN-19" value="飞巴开放平台" style="shape=umlLifeline;perimeter=lifelinePerimeter;whiteSpace=wrap;html=1;container=1;collapsible=0;recursiveResize=0;outlineConnect=0;" vertex="1" parent="lzIYmvuplW2zlDW2XlVa-1">
          <mxGeometry x="760" y="80" width="100" height="530" as="geometry" />
        </mxCell>
        <mxCell id="ROyWMD74HyqL_B-godrN-17" value="" style="html=1;points=[];perimeter=orthogonalPerimeter;" vertex="1" parent="ROyWMD74HyqL_B-godrN-19">
          <mxGeometry x="45" y="140" width="10" height="80" as="geometry" />
        </mxCell>
        <mxCell id="ROyWMD74HyqL_B-godrN-26" style="edgeStyle=orthogonalEdgeStyle;rounded=0;orthogonalLoop=1;jettySize=auto;html=1;curved=1;" edge="1" parent="ROyWMD74HyqL_B-godrN-19" source="ROyWMD74HyqL_B-godrN-17" target="ROyWMD74HyqL_B-godrN-17">
          <mxGeometry relative="1" as="geometry" />
        </mxCell>
        <mxCell id="ROyWMD74HyqL_B-godrN-33" value="" style="edgeStyle=orthogonalEdgeStyle;rounded=0;orthogonalLoop=1;jettySize=auto;html=1;curved=1;" edge="1" parent="ROyWMD74HyqL_B-godrN-19" source="ROyWMD74HyqL_B-godrN-29" target="ROyWMD74HyqL_B-godrN-29">
          <mxGeometry relative="1" as="geometry">
            <mxPoint x="135" y="275" as="targetPoint" />
          </mxGeometry>
        </mxCell>
        <mxCell id="ROyWMD74HyqL_B-godrN-29" value="" style="html=1;points=[];perimeter=orthogonalPerimeter;" vertex="1" parent="ROyWMD74HyqL_B-godrN-19">
          <mxGeometry x="45" y="240" width="10" height="70" as="geometry" />
        </mxCell>
        <mxCell id="ROyWMD74HyqL_B-godrN-39" value="" style="edgeStyle=orthogonalEdgeStyle;rounded=0;orthogonalLoop=1;jettySize=auto;html=1;curved=1;" edge="1" parent="ROyWMD74HyqL_B-godrN-19" source="ROyWMD74HyqL_B-godrN-36" target="ROyWMD74HyqL_B-godrN-36">
          <mxGeometry relative="1" as="geometry">
            <mxPoint x="135" y="380" as="targetPoint" />
          </mxGeometry>
        </mxCell>
        <mxCell id="ROyWMD74HyqL_B-godrN-36" value="" style="html=1;points=[];perimeter=orthogonalPerimeter;" vertex="1" parent="ROyWMD74HyqL_B-godrN-19">
          <mxGeometry x="45" y="340" width="10" height="80" as="geometry" />
        </mxCell>
        <mxCell id="ROyWMD74HyqL_B-godrN-44" value="" style="edgeStyle=orthogonalEdgeStyle;rounded=0;orthogonalLoop=1;jettySize=auto;html=1;curved=1;" edge="1" parent="ROyWMD74HyqL_B-godrN-19" source="ROyWMD74HyqL_B-godrN-41" target="ROyWMD74HyqL_B-godrN-41">
          <mxGeometry relative="1" as="geometry">
            <mxPoint x="135" y="480" as="targetPoint" />
          </mxGeometry>
        </mxCell>
        <mxCell id="ROyWMD74HyqL_B-godrN-41" value="" style="html=1;points=[];perimeter=orthogonalPerimeter;" vertex="1" parent="ROyWMD74HyqL_B-godrN-19">
          <mxGeometry x="45" y="440" width="10" height="80" as="geometry" />
        </mxCell>
        <mxCell id="ROyWMD74HyqL_B-godrN-18" value="" style="edgeStyle=orthogonalEdgeStyle;rounded=0;orthogonalLoop=1;jettySize=auto;html=1;dashed=1;" edge="1" parent="lzIYmvuplW2zlDW2XlVa-1" source="ROyWMD74HyqL_B-godrN-12" target="ROyWMD74HyqL_B-godrN-17">
          <mxGeometry relative="1" as="geometry">
            <Array as="points">
              <mxPoint x="750" y="230" />
              <mxPoint x="750" y="230" />
            </Array>
          </mxGeometry>
        </mxCell>
        <mxCell id="ROyWMD74HyqL_B-godrN-23" value="同步企业信息" style="text;html=1;align=center;verticalAlign=middle;resizable=0;points=[];autosize=1;" vertex="1" parent="lzIYmvuplW2zlDW2XlVa-1">
          <mxGeometry x="630" y="200" width="90" height="20" as="geometry" />
        </mxCell>
        <mxCell id="ROyWMD74HyqL_B-godrN-27" value="注册/更新&lt;br&gt;企业信息" style="text;html=1;align=center;verticalAlign=middle;resizable=0;points=[];autosize=1;" vertex="1" parent="lzIYmvuplW2zlDW2XlVa-1">
          <mxGeometry x="840" y="230" width="70" height="30" as="geometry" />
        </mxCell>
        <mxCell id="ROyWMD74HyqL_B-godrN-30" value="" style="rounded=0;orthogonalLoop=1;jettySize=auto;html=1;dashed=1;" edge="1" parent="lzIYmvuplW2zlDW2XlVa-1" source="ROyWMD74HyqL_B-godrN-12" target="ROyWMD74HyqL_B-godrN-29">
          <mxGeometry relative="1" as="geometry">
            <Array as="points">
              <mxPoint x="690" y="340" />
            </Array>
          </mxGeometry>
        </mxCell>
        <mxCell id="ROyWMD74HyqL_B-godrN-31" value="同步企业部门信息" style="text;html=1;align=center;verticalAlign=middle;resizable=0;points=[];autosize=1;" vertex="1" parent="lzIYmvuplW2zlDW2XlVa-1">
          <mxGeometry x="630" y="310" width="110" height="20" as="geometry" />
        </mxCell>
        <mxCell id="ROyWMD74HyqL_B-godrN-34" value="更新&lt;br&gt;企业部门信息" style="text;html=1;align=center;verticalAlign=middle;resizable=0;points=[];autosize=1;" vertex="1" parent="lzIYmvuplW2zlDW2XlVa-1">
          <mxGeometry x="830" y="340" width="90" height="30" as="geometry" />
        </mxCell>
        <mxCell id="ROyWMD74HyqL_B-godrN-37" style="rounded=0;orthogonalLoop=1;jettySize=auto;html=1;dashed=1;" edge="1" parent="lzIYmvuplW2zlDW2XlVa-1" source="ROyWMD74HyqL_B-godrN-12" target="ROyWMD74HyqL_B-godrN-36">
          <mxGeometry relative="1" as="geometry">
            <Array as="points">
              <mxPoint x="690" y="440" />
            </Array>
          </mxGeometry>
        </mxCell>
        <mxCell id="ROyWMD74HyqL_B-godrN-40" value="同步企业员工信息" style="text;html=1;align=center;verticalAlign=middle;resizable=0;points=[];autosize=1;" vertex="1" parent="lzIYmvuplW2zlDW2XlVa-1">
          <mxGeometry x="630" y="410" width="110" height="20" as="geometry" />
        </mxCell>
        <mxCell id="ROyWMD74HyqL_B-godrN-42" style="rounded=0;orthogonalLoop=1;jettySize=auto;html=1;dashed=1;" edge="1" parent="lzIYmvuplW2zlDW2XlVa-1" source="ROyWMD74HyqL_B-godrN-12" target="ROyWMD74HyqL_B-godrN-41">
          <mxGeometry relative="1" as="geometry">
            <Array as="points">
              <mxPoint x="690" y="540" />
            </Array>
          </mxGeometry>
        </mxCell>
        <mxCell id="ROyWMD74HyqL_B-godrN-45" value="同步企业员工角色信息" style="text;html=1;align=center;verticalAlign=middle;resizable=0;points=[];autosize=1;" vertex="1" parent="lzIYmvuplW2zlDW2XlVa-1">
          <mxGeometry x="630" y="510" width="140" height="20" as="geometry" />
        </mxCell>
        <mxCell id="ROyWMD74HyqL_B-godrN-46" value="更新&lt;br&gt;企业员工信息" style="text;html=1;align=center;verticalAlign=middle;resizable=0;points=[];autosize=1;" vertex="1" parent="lzIYmvuplW2zlDW2XlVa-1">
          <mxGeometry x="840" y="450" width="90" height="30" as="geometry" />
        </mxCell>
        <mxCell id="ROyWMD74HyqL_B-godrN-47" value="更新&lt;br&gt;企业角色信息" style="text;html=1;align=center;verticalAlign=middle;resizable=0;points=[];autosize=1;" vertex="1" parent="lzIYmvuplW2zlDW2XlVa-1">
          <mxGeometry x="840" y="550" width="90" height="30" as="geometry" />
        </mxCell>
        <mxCell id="ROyWMD74HyqL_B-godrN-48" value="企业开通：企业开通指的是企业管理员在钉钉后台入驻到飞巴应用上来，并为飞巴应用授权相应的企业信息。" style="text;html=1;align=left;verticalAlign=middle;resizable=0;points=[];autosize=1;" vertex="1" parent="lzIYmvuplW2zlDW2XlVa-1">
          <mxGeometry x="40" y="660" width="590" height="20" as="geometry" />
        </mxCell>
        <mxCell id="XfqAjCLGHTh9f_zEp6VF-0" value="聚石塔代理：根据钉钉第三方应用开发者规范要求，需要在聚石塔云平台上部署一个代理用于实现第三方服务与钉钉之间的服务交互，我们称为部署在聚石塔代理。" style="text;html=1;align=left;verticalAlign=middle;resizable=0;points=[];autosize=1;" vertex="1" parent="lzIYmvuplW2zlDW2XlVa-1">
          <mxGeometry x="40" y="710" width="880" height="20" as="geometry" />
        </mxCell>
      </root>
    </mxGraphModel>
  </diagram>
  <diagram id="LsY3n9CnqGCvU9-dlRnW" name="uml_sequence_diagram_001">
    <mxGraphModel dx="1422" dy="737" grid="1" gridSize="10" guides="1" tooltips="1" connect="1" arrows="1" fold="1" page="1" pageScale="1" pageWidth="1920" pageHeight="1200" math="0" shadow="0">
      <root>
        <mxCell id="FwvMESewa7GjfpeRXs3q-0" />
        <mxCell id="FwvMESewa7GjfpeRXs3q-1" parent="FwvMESewa7GjfpeRXs3q-0" />
        <mxCell id="f5wzyF6p-KHusnzi26x8-0" value=":Object" style="shape=umlLifeline;perimeter=lifelinePerimeter;whiteSpace=wrap;html=1;container=1;collapsible=0;recursiveResize=0;outlineConnect=0;rounded=1;shadow=0;comic=0;labelBackgroundColor=none;strokeWidth=1;fontFamily=Verdana;fontSize=12;align=center;" parent="FwvMESewa7GjfpeRXs3q-1" vertex="1">
          <mxGeometry x="240" y="80" width="100" height="580" as="geometry" />
        </mxCell>
        <mxCell id="f5wzyF6p-KHusnzi26x8-1" value="" style="html=1;points=[];perimeter=orthogonalPerimeter;rounded=0;shadow=0;comic=0;labelBackgroundColor=none;strokeWidth=1;fontFamily=Verdana;fontSize=12;align=center;" parent="f5wzyF6p-KHusnzi26x8-0" vertex="1">
          <mxGeometry x="45" y="100" width="10" height="230" as="geometry" />
        </mxCell>
        <mxCell id="f5wzyF6p-KHusnzi26x8-2" value=":Object" style="shape=umlLifeline;perimeter=lifelinePerimeter;whiteSpace=wrap;html=1;container=1;collapsible=0;recursiveResize=0;outlineConnect=0;rounded=1;shadow=0;comic=0;labelBackgroundColor=none;strokeWidth=1;fontFamily=Verdana;fontSize=12;align=center;" parent="FwvMESewa7GjfpeRXs3q-1" vertex="1">
          <mxGeometry x="400" y="80" width="100" height="580" as="geometry" />
        </mxCell>
        <mxCell id="f5wzyF6p-KHusnzi26x8-3" value="" style="html=1;points=[];perimeter=orthogonalPerimeter;rounded=0;shadow=0;comic=0;labelBackgroundColor=none;strokeWidth=1;fontFamily=Verdana;fontSize=12;align=center;" parent="f5wzyF6p-KHusnzi26x8-2" vertex="1">
          <mxGeometry x="45" y="120" width="10" height="200" as="geometry" />
        </mxCell>
        <mxCell id="f5wzyF6p-KHusnzi26x8-4" value=":Object" style="shape=umlLifeline;perimeter=lifelinePerimeter;whiteSpace=wrap;html=1;container=1;collapsible=0;recursiveResize=0;outlineConnect=0;rounded=1;shadow=0;comic=0;labelBackgroundColor=none;strokeWidth=1;fontFamily=Verdana;fontSize=12;align=center;" parent="FwvMESewa7GjfpeRXs3q-1" vertex="1">
          <mxGeometry x="540" y="80" width="100" height="580" as="geometry" />
        </mxCell>
        <mxCell id="f5wzyF6p-KHusnzi26x8-5" value=":Object" style="shape=umlLifeline;perimeter=lifelinePerimeter;whiteSpace=wrap;html=1;container=1;collapsible=0;recursiveResize=0;outlineConnect=0;rounded=1;shadow=0;comic=0;labelBackgroundColor=none;strokeWidth=1;fontFamily=Verdana;fontSize=12;align=center;" parent="FwvMESewa7GjfpeRXs3q-1" vertex="1">
          <mxGeometry x="680" y="80" width="100" height="580" as="geometry" />
        </mxCell>
        <mxCell id="f5wzyF6p-KHusnzi26x8-6" value=":Object" style="shape=umlLifeline;perimeter=lifelinePerimeter;whiteSpace=wrap;html=1;container=1;collapsible=0;recursiveResize=0;outlineConnect=0;rounded=1;shadow=0;comic=0;labelBackgroundColor=none;strokeWidth=1;fontFamily=Verdana;fontSize=12;align=center;" parent="FwvMESewa7GjfpeRXs3q-1" vertex="1">
          <mxGeometry x="820" y="80" width="100" height="580" as="geometry" />
        </mxCell>
        <mxCell id="f5wzyF6p-KHusnzi26x8-7" value=":Object" style="shape=umlLifeline;perimeter=lifelinePerimeter;whiteSpace=wrap;html=1;container=1;collapsible=0;recursiveResize=0;outlineConnect=0;rounded=1;shadow=0;comic=0;labelBackgroundColor=none;strokeWidth=1;fontFamily=Verdana;fontSize=12;align=center;" parent="FwvMESewa7GjfpeRXs3q-1" vertex="1">
          <mxGeometry x="960" y="80" width="100" height="580" as="geometry" />
        </mxCell>
        <mxCell id="f5wzyF6p-KHusnzi26x8-8" value=":Object" style="shape=umlLifeline;perimeter=lifelinePerimeter;whiteSpace=wrap;html=1;container=1;collapsible=0;recursiveResize=0;outlineConnect=0;rounded=1;shadow=0;comic=0;labelBackgroundColor=none;strokeWidth=1;fontFamily=Verdana;fontSize=12;align=center;" parent="FwvMESewa7GjfpeRXs3q-1" vertex="1">
          <mxGeometry x="100" y="80" width="100" height="580" as="geometry" />
        </mxCell>
        <mxCell id="f5wzyF6p-KHusnzi26x8-9" value="" style="html=1;points=[];perimeter=orthogonalPerimeter;rounded=0;shadow=0;comic=0;labelBackgroundColor=none;strokeWidth=1;fontFamily=Verdana;fontSize=12;align=center;" parent="f5wzyF6p-KHusnzi26x8-8" vertex="1">
          <mxGeometry x="45" y="100" width="10" height="440" as="geometry" />
        </mxCell>
        <mxCell id="f5wzyF6p-KHusnzi26x8-10" value="" style="html=1;points=[];perimeter=orthogonalPerimeter;rounded=0;shadow=0;comic=0;labelBackgroundColor=none;strokeWidth=1;fontFamily=Verdana;fontSize=12;align=center;" parent="FwvMESewa7GjfpeRXs3q-1" vertex="1">
          <mxGeometry x="585" y="220" width="10" height="180" as="geometry" />
        </mxCell>
        <mxCell id="f5wzyF6p-KHusnzi26x8-11" value="dispatch" style="html=1;verticalAlign=bottom;endArrow=block;labelBackgroundColor=none;fontFamily=Verdana;fontSize=12;edgeStyle=elbowEdgeStyle;elbow=vertical;" parent="FwvMESewa7GjfpeRXs3q-1" source="f5wzyF6p-KHusnzi26x8-3" target="f5wzyF6p-KHusnzi26x8-10" edge="1">
          <mxGeometry relative="1" as="geometry">
            <mxPoint x="510" y="220" as="sourcePoint" />
            <Array as="points">
              <mxPoint x="460" y="220" />
            </Array>
          </mxGeometry>
        </mxCell>
        <mxCell id="f5wzyF6p-KHusnzi26x8-12" value="" style="html=1;points=[];perimeter=orthogonalPerimeter;rounded=0;shadow=0;comic=0;labelBackgroundColor=none;strokeWidth=1;fontFamily=Verdana;fontSize=12;align=center;" parent="FwvMESewa7GjfpeRXs3q-1" vertex="1">
          <mxGeometry x="725" y="230" width="10" height="40" as="geometry" />
        </mxCell>
        <mxCell id="f5wzyF6p-KHusnzi26x8-13" value="dispatch" style="html=1;verticalAlign=bottom;endArrow=block;entryX=0;entryY=0;labelBackgroundColor=none;fontFamily=Verdana;fontSize=12;edgeStyle=elbowEdgeStyle;elbow=vertical;" parent="FwvMESewa7GjfpeRXs3q-1" source="f5wzyF6p-KHusnzi26x8-10" target="f5wzyF6p-KHusnzi26x8-12" edge="1">
          <mxGeometry relative="1" as="geometry">
            <mxPoint x="650" y="230" as="sourcePoint" />
          </mxGeometry>
        </mxCell>
        <mxCell id="f5wzyF6p-KHusnzi26x8-14" value="return" style="html=1;verticalAlign=bottom;endArrow=open;dashed=1;endSize=8;labelBackgroundColor=none;fontFamily=Verdana;fontSize=12;edgeStyle=elbowEdgeStyle;elbow=vertical;" parent="FwvMESewa7GjfpeRXs3q-1" source="f5wzyF6p-KHusnzi26x8-12" target="f5wzyF6p-KHusnzi26x8-10" edge="1">
          <mxGeometry relative="1" as="geometry">
            <mxPoint x="650" y="306" as="targetPoint" />
            <Array as="points">
              <mxPoint x="670" y="260" />
              <mxPoint x="700" y="260" />
            </Array>
          </mxGeometry>
        </mxCell>
        <mxCell id="f5wzyF6p-KHusnzi26x8-15" value="" style="html=1;points=[];perimeter=orthogonalPerimeter;rounded=0;shadow=0;comic=0;labelBackgroundColor=none;strokeWidth=1;fontFamily=Verdana;fontSize=12;align=center;" parent="FwvMESewa7GjfpeRXs3q-1" vertex="1">
          <mxGeometry x="585" y="440" width="10" height="140" as="geometry" />
        </mxCell>
        <mxCell id="f5wzyF6p-KHusnzi26x8-16" value="dispatch" style="html=1;verticalAlign=bottom;endArrow=block;entryX=0;entryY=0;labelBackgroundColor=none;fontFamily=Verdana;fontSize=12;" parent="FwvMESewa7GjfpeRXs3q-1" source="f5wzyF6p-KHusnzi26x8-9" target="f5wzyF6p-KHusnzi26x8-15" edge="1">
          <mxGeometry relative="1" as="geometry">
            <mxPoint x="510" y="420" as="sourcePoint" />
          </mxGeometry>
        </mxCell>
        <mxCell id="f5wzyF6p-KHusnzi26x8-17" value="" style="html=1;points=[];perimeter=orthogonalPerimeter;rounded=0;shadow=0;comic=0;labelBackgroundColor=none;strokeColor=#000000;strokeWidth=1;fillColor=#FFFFFF;fontFamily=Verdana;fontSize=12;fontColor=#000000;align=center;" parent="FwvMESewa7GjfpeRXs3q-1" vertex="1">
          <mxGeometry x="1005" y="460" width="10" height="30" as="geometry" />
        </mxCell>
        <mxCell id="f5wzyF6p-KHusnzi26x8-18" value="dispatch" style="html=1;verticalAlign=bottom;endArrow=block;entryX=0;entryY=0;labelBackgroundColor=none;fontFamily=Verdana;fontSize=12;" parent="FwvMESewa7GjfpeRXs3q-1" source="f5wzyF6p-KHusnzi26x8-15" target="f5wzyF6p-KHusnzi26x8-17" edge="1">
          <mxGeometry relative="1" as="geometry">
            <mxPoint x="930" y="340" as="sourcePoint" />
          </mxGeometry>
        </mxCell>
        <mxCell id="f5wzyF6p-KHusnzi26x8-19" value="return" style="html=1;verticalAlign=bottom;endArrow=open;dashed=1;endSize=8;exitX=0;exitY=0.95;labelBackgroundColor=none;fontFamily=Verdana;fontSize=12;" parent="FwvMESewa7GjfpeRXs3q-1" source="f5wzyF6p-KHusnzi26x8-17" target="f5wzyF6p-KHusnzi26x8-15" edge="1">
          <mxGeometry relative="1" as="geometry">
            <mxPoint x="930" y="416" as="targetPoint" />
          </mxGeometry>
        </mxCell>
        <mxCell id="f5wzyF6p-KHusnzi26x8-20" value="" style="html=1;points=[];perimeter=orthogonalPerimeter;rounded=0;shadow=0;comic=0;labelBackgroundColor=none;strokeWidth=1;fontFamily=Verdana;fontSize=12;align=center;" parent="FwvMESewa7GjfpeRXs3q-1" vertex="1">
          <mxGeometry x="870" y="550" width="10" height="60" as="geometry" />
        </mxCell>
        <mxCell id="f5wzyF6p-KHusnzi26x8-21" value="dispatch" style="html=1;verticalAlign=bottom;endArrow=block;entryX=0;entryY=0;labelBackgroundColor=none;fontFamily=Verdana;fontSize=12;edgeStyle=elbowEdgeStyle;elbow=vertical;" parent="FwvMESewa7GjfpeRXs3q-1" source="f5wzyF6p-KHusnzi26x8-28" target="f5wzyF6p-KHusnzi26x8-20" edge="1">
          <mxGeometry relative="1" as="geometry">
            <mxPoint x="800" y="550" as="sourcePoint" />
          </mxGeometry>
        </mxCell>
        <mxCell id="f5wzyF6p-KHusnzi26x8-22" value="return" style="html=1;verticalAlign=bottom;endArrow=open;dashed=1;endSize=8;labelBackgroundColor=none;fontFamily=Verdana;fontSize=12;edgeStyle=elbowEdgeStyle;elbow=vertical;" parent="FwvMESewa7GjfpeRXs3q-1" source="f5wzyF6p-KHusnzi26x8-20" target="f5wzyF6p-KHusnzi26x8-9" edge="1">
          <mxGeometry relative="1" as="geometry">
            <mxPoint x="800" y="626" as="targetPoint" />
            <Array as="points">
              <mxPoint x="570" y="600" />
            </Array>
          </mxGeometry>
        </mxCell>
        <mxCell id="f5wzyF6p-KHusnzi26x8-23" value="dispatch" style="html=1;verticalAlign=bottom;endArrow=block;entryX=0;entryY=0;labelBackgroundColor=none;fontFamily=Verdana;fontSize=12;edgeStyle=elbowEdgeStyle;elbow=vertical;" parent="FwvMESewa7GjfpeRXs3q-1" source="f5wzyF6p-KHusnzi26x8-9" target="f5wzyF6p-KHusnzi26x8-1" edge="1">
          <mxGeometry relative="1" as="geometry">
            <mxPoint x="220" y="190" as="sourcePoint" />
          </mxGeometry>
        </mxCell>
        <mxCell id="f5wzyF6p-KHusnzi26x8-24" value="dispatch" style="html=1;verticalAlign=bottom;endArrow=block;entryX=0;entryY=0;labelBackgroundColor=none;fontFamily=Verdana;fontSize=12;edgeStyle=elbowEdgeStyle;elbow=vertical;" parent="FwvMESewa7GjfpeRXs3q-1" source="f5wzyF6p-KHusnzi26x8-1" target="f5wzyF6p-KHusnzi26x8-3" edge="1">
          <mxGeometry relative="1" as="geometry">
            <mxPoint x="370" y="200" as="sourcePoint" />
          </mxGeometry>
        </mxCell>
        <mxCell id="f5wzyF6p-KHusnzi26x8-25" value="" style="html=1;points=[];perimeter=orthogonalPerimeter;rounded=0;shadow=0;comic=0;labelBackgroundColor=none;strokeWidth=1;fontFamily=Verdana;fontSize=12;align=center;" parent="FwvMESewa7GjfpeRXs3q-1" vertex="1">
          <mxGeometry x="590" y="300" width="10" height="70" as="geometry" />
        </mxCell>
        <mxCell id="f5wzyF6p-KHusnzi26x8-26" value="dispatch" style="html=1;verticalAlign=bottom;endArrow=block;labelBackgroundColor=none;fontFamily=Verdana;fontSize=12;elbow=vertical;edgeStyle=orthogonalEdgeStyle;curved=1;entryX=1;entryY=0.286;entryPerimeter=0;exitX=1.038;exitY=0.345;exitPerimeter=0;" parent="FwvMESewa7GjfpeRXs3q-1" source="f5wzyF6p-KHusnzi26x8-10" target="f5wzyF6p-KHusnzi26x8-25" edge="1">
          <mxGeometry relative="1" as="geometry">
            <mxPoint x="465" y="230" as="sourcePoint" />
            <mxPoint x="595" y="230" as="targetPoint" />
            <Array as="points">
              <mxPoint x="650" y="282" />
              <mxPoint x="650" y="320" />
            </Array>
          </mxGeometry>
        </mxCell>
        <mxCell id="f5wzyF6p-KHusnzi26x8-27" value="dispatch" style="html=1;verticalAlign=bottom;endArrow=block;labelBackgroundColor=none;fontFamily=Verdana;fontSize=12;elbow=vertical;edgeStyle=orthogonalEdgeStyle;curved=1;exitX=1.066;exitY=0.713;exitPerimeter=0;" parent="FwvMESewa7GjfpeRXs3q-1" source="f5wzyF6p-KHusnzi26x8-25" edge="1">
          <mxGeometry relative="1" as="geometry">
            <mxPoint x="610.3333333333333" y="350" as="sourcePoint" />
            <mxPoint x="595" y="389" as="targetPoint" />
            <Array as="points">
              <mxPoint x="650" y="350" />
              <mxPoint x="650" y="389" />
            </Array>
          </mxGeometry>
        </mxCell>
        <mxCell id="f5wzyF6p-KHusnzi26x8-28" value="" style="html=1;points=[];perimeter=orthogonalPerimeter;rounded=0;shadow=0;comic=0;labelBackgroundColor=none;strokeWidth=1;fontFamily=Verdana;fontSize=12;align=center;" parent="FwvMESewa7GjfpeRXs3q-1" vertex="1">
          <mxGeometry x="590" y="520" width="10" height="40" as="geometry" />
        </mxCell>
        <mxCell id="f5wzyF6p-KHusnzi26x8-29" value="dispatch" style="html=1;verticalAlign=bottom;endArrow=block;labelBackgroundColor=none;fontFamily=Verdana;fontSize=12;elbow=vertical;edgeStyle=orthogonalEdgeStyle;curved=1;entryX=1;entryY=0.286;entryPerimeter=0;exitX=1.038;exitY=0.345;exitPerimeter=0;" parent="FwvMESewa7GjfpeRXs3q-1" edge="1">
          <mxGeometry relative="1" as="geometry">
            <mxPoint x="595.3333333333335" y="501" as="sourcePoint" />
            <mxPoint x="600.3333333333335" y="539.3333333333335" as="targetPoint" />
            <Array as="points">
              <mxPoint x="650" y="501" />
              <mxPoint x="650" y="539" />
            </Array>
          </mxGeometry>
        </mxCell>
        <mxCell id="f5wzyF6p-KHusnzi26x8-30" value="Note" style="shape=note;whiteSpace=wrap;html=1;size=14;verticalAlign=top;align=left;spacingTop=-6;rounded=0;shadow=0;comic=0;labelBackgroundColor=none;strokeWidth=1;fontFamily=Verdana;fontSize=12" parent="FwvMESewa7GjfpeRXs3q-1" vertex="1">
          <mxGeometry x="100" y="30" width="100" height="35" as="geometry" />
        </mxCell>
        <mxCell id="f5wzyF6p-KHusnzi26x8-31" value="Note" style="shape=note;whiteSpace=wrap;html=1;size=14;verticalAlign=top;align=left;spacingTop=-6;rounded=0;shadow=0;comic=0;labelBackgroundColor=none;strokeWidth=1;fontFamily=Verdana;fontSize=12" parent="FwvMESewa7GjfpeRXs3q-1" vertex="1">
          <mxGeometry x="240" y="30" width="100" height="35" as="geometry" />
        </mxCell>
        <mxCell id="f5wzyF6p-KHusnzi26x8-32" value="Note" style="shape=note;whiteSpace=wrap;html=1;size=14;verticalAlign=top;align=left;spacingTop=-6;rounded=0;shadow=0;comic=0;labelBackgroundColor=none;strokeWidth=1;fontFamily=Verdana;fontSize=12" parent="FwvMESewa7GjfpeRXs3q-1" vertex="1">
          <mxGeometry x="400" y="30" width="100" height="35" as="geometry" />
        </mxCell>
        <mxCell id="f5wzyF6p-KHusnzi26x8-33" value="Note" style="shape=note;whiteSpace=wrap;html=1;size=14;verticalAlign=top;align=left;spacingTop=-6;rounded=0;shadow=0;comic=0;labelBackgroundColor=none;strokeWidth=1;fontFamily=Verdana;fontSize=12" parent="FwvMESewa7GjfpeRXs3q-1" vertex="1">
          <mxGeometry x="540" y="30" width="100" height="35" as="geometry" />
        </mxCell>
        <mxCell id="f5wzyF6p-KHusnzi26x8-34" value="Note" style="shape=note;whiteSpace=wrap;html=1;size=14;verticalAlign=top;align=left;spacingTop=-6;rounded=0;shadow=0;comic=0;labelBackgroundColor=none;strokeWidth=1;fontFamily=Verdana;fontSize=12" parent="FwvMESewa7GjfpeRXs3q-1" vertex="1">
          <mxGeometry x="680" y="30" width="100" height="35" as="geometry" />
        </mxCell>
        <mxCell id="f5wzyF6p-KHusnzi26x8-35" value="Note" style="shape=note;whiteSpace=wrap;html=1;size=14;verticalAlign=top;align=left;spacingTop=-6;rounded=0;shadow=0;comic=0;labelBackgroundColor=none;strokeWidth=1;fontFamily=Verdana;fontSize=12" parent="FwvMESewa7GjfpeRXs3q-1" vertex="1">
          <mxGeometry x="820" y="30" width="100" height="35" as="geometry" />
        </mxCell>
        <mxCell id="f5wzyF6p-KHusnzi26x8-36" value="Note" style="shape=note;whiteSpace=wrap;html=1;size=14;verticalAlign=top;align=left;spacingTop=-6;rounded=0;shadow=0;comic=0;labelBackgroundColor=none;strokeWidth=1;fontFamily=Verdana;fontSize=12" parent="FwvMESewa7GjfpeRXs3q-1" vertex="1">
          <mxGeometry x="960" y="30" width="100" height="35" as="geometry" />
        </mxCell>
      </root>
    </mxGraphModel>
  </diagram>
  <diagram id="gJO4djJvRrOLGTOQFvyE" name="uml_sequence_diagram_002">
    <mxGraphModel dx="1422" dy="737" grid="1" gridSize="10" guides="1" tooltips="1" connect="1" arrows="1" fold="1" page="1" pageScale="1" pageWidth="1920" pageHeight="1200" math="0" shadow="0">
      <root>
        <mxCell id="XGFIz8w3da0hEXHN5y0l-0" />
        <mxCell id="XGFIz8w3da0hEXHN5y0l-1" parent="XGFIz8w3da0hEXHN5y0l-0" />
        <mxCell id="1g2dC_u7hxNs4hSqc75N-148" value="" style="fillColor=#DEE8FF;strokeColor=none" parent="XGFIz8w3da0hEXHN5y0l-1" vertex="1">
          <mxGeometry x="40" y="10" width="1570" height="800" as="geometry" />
        </mxCell>
        <mxCell id="1g2dC_u7hxNs4hSqc75N-149" value="" style="fillColor=#CCD5EB" parent="XGFIz8w3da0hEXHN5y0l-1" vertex="1">
          <mxGeometry x="140" y="410" width="1460" height="390" as="geometry" />
        </mxCell>
        <mxCell id="1g2dC_u7hxNs4hSqc75N-150" value="" style="edgeStyle=elbowEdgeStyle;elbow=horizontal;endArrow=none;dashed=1" parent="XGFIz8w3da0hEXHN5y0l-1" edge="1">
          <mxGeometry x="1460" y="437.8935185185186" width="100" height="100" as="geometry">
            <mxPoint x="1354.5" y="610" as="sourcePoint" />
            <mxPoint x="1354.5" y="770" as="targetPoint" />
          </mxGeometry>
        </mxCell>
        <mxCell id="1g2dC_u7hxNs4hSqc75N-151" value="" style="fillColor=#CC4125;strokeColor=#660000" parent="XGFIz8w3da0hEXHN5y0l-1" vertex="1">
          <mxGeometry x="200" y="150" width="10" height="130" as="geometry" />
        </mxCell>
        <mxCell id="1g2dC_u7hxNs4hSqc75N-152" value="validate()" style="edgeStyle=none;verticalLabelPosition=top;verticalAlign=bottom;labelPosition=left;align=right" parent="XGFIz8w3da0hEXHN5y0l-1" edge="1">
          <mxGeometry x="110" y="49.5" width="100" height="100" as="geometry">
            <mxPoint x="110" y="149.5" as="sourcePoint" />
            <mxPoint x="200" y="149.5" as="targetPoint" />
          </mxGeometry>
        </mxCell>
        <mxCell id="1g2dC_u7hxNs4hSqc75N-153" value=":dialog" style="shadow=1;fillColor=#A2C4C9;strokeColor=none" parent="XGFIz8w3da0hEXHN5y0l-1" vertex="1">
          <mxGeometry x="152.5" y="60" width="105" height="50" as="geometry" />
        </mxCell>
        <mxCell id="1g2dC_u7hxNs4hSqc75N-154" value="" style="fillColor=#CC4125;strokeColor=#660000" parent="XGFIz8w3da0hEXHN5y0l-1" vertex="1">
          <mxGeometry x="342.5" y="180" width="10" height="80" as="geometry" />
        </mxCell>
        <mxCell id="1g2dC_u7hxNs4hSqc75N-155" value="&lt;&lt;javascript&gt;&gt;&#xa;:Comments" style="shadow=1;fillColor=#A2C4C9;strokeColor=none" parent="XGFIz8w3da0hEXHN5y0l-1" vertex="1">
          <mxGeometry x="295" y="60" width="105" height="50" as="geometry" />
        </mxCell>
        <mxCell id="1g2dC_u7hxNs4hSqc75N-156" value="" style="edgeStyle=none;endArrow=none;dashed=1" parent="XGFIz8w3da0hEXHN5y0l-1" source="1g2dC_u7hxNs4hSqc75N-155" target="1g2dC_u7hxNs4hSqc75N-154" edge="1">
          <mxGeometry x="272.3350694444445" y="165" width="100" height="100" as="geometry">
            <mxPoint x="347.2588734567901" y="110" as="sourcePoint" />
            <mxPoint x="347.5761959876544" y="165" as="targetPoint" />
          </mxGeometry>
        </mxCell>
        <mxCell id="1g2dC_u7hxNs4hSqc75N-157" value="validate()" style="edgeStyle=none;verticalLabelPosition=top;verticalAlign=bottom" parent="XGFIz8w3da0hEXHN5y0l-1" edge="1">
          <mxGeometry x="220" y="92" width="100" height="100" as="geometry">
            <mxPoint x="210" y="179.5" as="sourcePoint" />
            <mxPoint x="340" y="179.5" as="targetPoint" />
          </mxGeometry>
        </mxCell>
        <mxCell id="1g2dC_u7hxNs4hSqc75N-158" value="" style="edgeStyle=none;verticalLabelPosition=top;verticalAlign=bottom;endArrow=none;startArrow=classic;dashed=1" parent="XGFIz8w3da0hEXHN5y0l-1" edge="1">
          <mxGeometry x="220" y="172.25887345679013" width="100" height="100" as="geometry">
            <mxPoint x="210" y="259.7588734567901" as="sourcePoint" />
            <mxPoint x="340" y="259.7588734567901" as="targetPoint" />
          </mxGeometry>
        </mxCell>
        <mxCell id="1g2dC_u7hxNs4hSqc75N-159" value="" style="edgeStyle=none;verticalLabelPosition=top;verticalAlign=bottom;labelPosition=left;align=right;endArrow=none;startArrow=classic;dashed=1" parent="XGFIz8w3da0hEXHN5y0l-1" edge="1">
          <mxGeometry x="110" y="179.75887345679013" width="100" height="100" as="geometry">
            <mxPoint x="110" y="279.7588734567901" as="sourcePoint" />
            <mxPoint x="200" y="279.7588734567901" as="targetPoint" />
          </mxGeometry>
        </mxCell>
        <mxCell id="1g2dC_u7hxNs4hSqc75N-160" value="&lt;&lt;create&gt;&gt;" style="edgeStyle=none;verticalLabelPosition=top;verticalAlign=bottom;dashed=1" parent="XGFIz8w3da0hEXHN5y0l-1" edge="1">
          <mxGeometry x="385.45524691358025" y="113.91550925925924" width="100" height="100" as="geometry">
            <mxPoint x="352.5" y="201.20563271604937" as="sourcePoint" />
            <mxPoint x="462.5" y="201.20563271604937" as="targetPoint" />
          </mxGeometry>
        </mxCell>
        <mxCell id="1g2dC_u7hxNs4hSqc75N-161" value="&lt;&lt;javascript&gt;&gt;&#xa;:Proxy" style="shadow=1;fillColor=#A2C4C9;strokeColor=none" parent="XGFIz8w3da0hEXHN5y0l-1" vertex="1">
          <mxGeometry x="462.2839506172839" y="169.99999999999997" width="105" height="50" as="geometry" />
        </mxCell>
        <mxCell id="1g2dC_u7hxNs4hSqc75N-162" value="" style="edgeStyle=none;endArrow=none" parent="XGFIz8w3da0hEXHN5y0l-1" source="1g2dC_u7hxNs4hSqc75N-161" target="1g2dC_u7hxNs4hSqc75N-163" edge="1">
          <mxGeometry x="437.042824074074" y="270" width="100" height="100" as="geometry">
            <mxPoint x="514.542824074074" y="219.99999999999997" as="sourcePoint" />
            <mxPoint x="514.542824074074" y="239.99999999999997" as="targetPoint" />
          </mxGeometry>
        </mxCell>
        <mxCell id="1g2dC_u7hxNs4hSqc75N-163" value="" style="fillColor=#CC4125;strokeColor=#660000" parent="XGFIz8w3da0hEXHN5y0l-1" vertex="1">
          <mxGeometry x="509.7839506172839" y="244.3942901234568" width="10" height="130" as="geometry" />
        </mxCell>
        <mxCell id="1g2dC_u7hxNs4hSqc75N-164" value="&lt;&lt;ajax&gt;&gt;" style="edgeStyle=elbowEdgeStyle;elbow=vertical;verticalLabelPosition=top;verticalAlign=bottom" parent="XGFIz8w3da0hEXHN5y0l-1" source="1g2dC_u7hxNs4hSqc75N-154" target="1g2dC_u7hxNs4hSqc75N-163" edge="1">
          <mxGeometry x="350" y="290" width="100" height="100" as="geometry">
            <mxPoint x="350" y="390" as="sourcePoint" />
            <mxPoint x="450" y="290" as="targetPoint" />
          </mxGeometry>
        </mxCell>
        <mxCell id="1g2dC_u7hxNs4hSqc75N-165" value="" style="fillColor=#CC4125;strokeColor=#660000" parent="XGFIz8w3da0hEXHN5y0l-1" vertex="1">
          <mxGeometry x="670" y="269.3942901234568" width="10" height="80" as="geometry" />
        </mxCell>
        <mxCell id="1g2dC_u7hxNs4hSqc75N-166" value="&lt;&lt;servlet&gt;&gt;&#xa;:CVSServlet" style="shadow=1;fillColor=#A2C4C9;strokeColor=none" parent="XGFIz8w3da0hEXHN5y0l-1" vertex="1">
          <mxGeometry x="622.5" y="60" width="105" height="50" as="geometry" />
        </mxCell>
        <mxCell id="1g2dC_u7hxNs4hSqc75N-167" value="" style="edgeStyle=none;endArrow=none;dashed=1" parent="XGFIz8w3da0hEXHN5y0l-1" source="1g2dC_u7hxNs4hSqc75N-166" target="1g2dC_u7hxNs4hSqc75N-165" edge="1">
          <mxGeometry x="614.4878472222224" y="174.99999999999997" width="100" height="100" as="geometry">
            <mxPoint x="674.6527777777778" y="110" as="sourcePoint" />
            <mxPoint x="674.6527777777778" y="260" as="targetPoint" />
          </mxGeometry>
        </mxCell>
        <mxCell id="1g2dC_u7hxNs4hSqc75N-168" value="&lt;&lt;service&gt;&gt;&#xa;:CVSService" style="shadow=1;fillColor=#A2C4C9;strokeColor=none" parent="XGFIz8w3da0hEXHN5y0l-1" vertex="1">
          <mxGeometry x="750" y="60" width="105" height="50" as="geometry" />
        </mxCell>
        <mxCell id="1g2dC_u7hxNs4hSqc75N-169" value="" style="edgeStyle=none;endArrow=none;dashed=1" parent="XGFIz8w3da0hEXHN5y0l-1" source="1g2dC_u7hxNs4hSqc75N-168" target="1g2dC_u7hxNs4hSqc75N-170" edge="1">
          <mxGeometry x="727.3350694444446" y="165" width="100" height="100" as="geometry">
            <mxPoint x="802.2588734567901" y="110" as="sourcePoint" />
            <mxPoint x="802.5761959876544" y="165" as="targetPoint" />
          </mxGeometry>
        </mxCell>
        <mxCell id="1g2dC_u7hxNs4hSqc75N-170" value="" style="fillColor=#CC4125;strokeColor=#660000" parent="XGFIz8w3da0hEXHN5y0l-1" vertex="1">
          <mxGeometry x="797.4999999999999" y="289.3942901234568" width="10" height="40" as="geometry" />
        </mxCell>
        <mxCell id="1g2dC_u7hxNs4hSqc75N-171" value="&lt;&lt;ajax&gt;&gt;" style="edgeStyle=elbowEdgeStyle;elbow=vertical;verticalLabelPosition=top;verticalAlign=bottom" parent="XGFIz8w3da0hEXHN5y0l-1" source="1g2dC_u7hxNs4hSqc75N-163" target="1g2dC_u7hxNs4hSqc75N-165" edge="1">
          <mxGeometry x="540" y="270" width="100" height="100" as="geometry">
            <mxPoint x="540" y="370" as="sourcePoint" />
            <mxPoint x="640" y="270" as="targetPoint" />
            <Array as="points">
              <mxPoint x="590" y="270" />
            </Array>
          </mxGeometry>
        </mxCell>
        <mxCell id="1g2dC_u7hxNs4hSqc75N-172" value="errors" style="edgeStyle=elbowEdgeStyle;elbow=vertical;dashed=1;verticalLabelPosition=bottom;verticalAlign=top" parent="XGFIz8w3da0hEXHN5y0l-1" source="1g2dC_u7hxNs4hSqc75N-165" target="1g2dC_u7hxNs4hSqc75N-163" edge="1">
          <mxGeometry x="550" y="280" width="100" height="100" as="geometry">
            <mxPoint x="529.7839506172838" y="280" as="sourcePoint" />
            <mxPoint x="680" y="280" as="targetPoint" />
            <Array as="points">
              <mxPoint x="593" y="348" />
            </Array>
          </mxGeometry>
        </mxCell>
        <mxCell id="1g2dC_u7hxNs4hSqc75N-173" value="&lt;&lt;javascript&gt;&gt;&#xa;:GimqRequest&#xa;Batch" style="shadow=1;fillColor=#A2C4C9;strokeColor=none" parent="XGFIz8w3da0hEXHN5y0l-1" vertex="1">
          <mxGeometry x="952.5" y="60" width="105" height="50" as="geometry" />
        </mxCell>
        <mxCell id="1g2dC_u7hxNs4hSqc75N-174" value="" style="edgeStyle=elbowEdgeStyle;elbow=horizontal;endArrow=none;dashed=1" parent="XGFIz8w3da0hEXHN5y0l-1" source="1g2dC_u7hxNs4hSqc75N-153" target="1g2dC_u7hxNs4hSqc75N-151" edge="1">
          <mxGeometry x="230.00000000000003" y="310" width="100" height="100" as="geometry">
            <mxPoint x="230.00000000000003" y="410" as="sourcePoint" />
            <mxPoint x="330" y="310" as="targetPoint" />
          </mxGeometry>
        </mxCell>
        <mxCell id="1g2dC_u7hxNs4hSqc75N-175" value="validate()" style="edgeStyle=elbowEdgeStyle;elbow=vertical;verticalLabelPosition=top;verticalAlign=bottom" parent="XGFIz8w3da0hEXHN5y0l-1" edge="1">
          <mxGeometry x="550" y="261.7361111111111" width="100" height="100" as="geometry">
            <mxPoint x="680" y="291.1304012345679" as="sourcePoint" />
            <mxPoint x="797.4999999999999" y="291.1304012345679" as="targetPoint" />
            <Array as="points" />
          </mxGeometry>
        </mxCell>
        <mxCell id="1g2dC_u7hxNs4hSqc75N-176" value="errors" style="edgeStyle=elbowEdgeStyle;elbow=vertical;dashed=1;verticalLabelPosition=bottom;verticalAlign=top" parent="XGFIz8w3da0hEXHN5y0l-1" edge="1">
          <mxGeometry x="560" y="309.65277777777777" width="100" height="100" as="geometry">
            <mxPoint x="797.4999999999999" y="329.0470679012346" as="sourcePoint" />
            <mxPoint x="680" y="329.0470679012346" as="targetPoint" />
            <Array as="points" />
          </mxGeometry>
        </mxCell>
        <mxCell id="1g2dC_u7hxNs4hSqc75N-177" value="" style="edgeStyle=elbowEdgeStyle;elbow=horizontal;endArrow=none;dashed=1" parent="XGFIz8w3da0hEXHN5y0l-1" edge="1">
          <mxGeometry x="932.2588734567901" y="240" width="100" height="100" as="geometry">
            <mxPoint x="802.2588734567901" y="329.3942901234568" as="sourcePoint" />
            <mxPoint x="802.2588734567901" y="370" as="targetPoint" />
            <Array as="points">
              <mxPoint x="802.2588734567901" y="350" />
            </Array>
          </mxGeometry>
        </mxCell>
        <mxCell id="1g2dC_u7hxNs4hSqc75N-178" value="" style="ellipse;fillColor=none" parent="XGFIz8w3da0hEXHN5y0l-1" vertex="1">
          <mxGeometry x="802.5000000000001" y="304.3942901234568" width="9.999999999999886" height="10" as="geometry" />
        </mxCell>
        <mxCell id="1g2dC_u7hxNs4hSqc75N-179" value=" - user&#xa; validation&#xa;&#xa; - password check" style="shape=note;align=left" parent="XGFIz8w3da0hEXHN5y0l-1" vertex="1">
          <mxGeometry x="829.9729938271605" y="180.17361111111111" width="120.02700617283949" height="109.82638888888889" as="geometry" />
        </mxCell>
        <mxCell id="1g2dC_u7hxNs4hSqc75N-180" value="" style="edgeStyle=none;endArrow=none;dashed=1" parent="XGFIz8w3da0hEXHN5y0l-1" source="1g2dC_u7hxNs4hSqc75N-179" target="1g2dC_u7hxNs4hSqc75N-178" edge="1">
          <mxGeometry x="1030" y="180" width="100" height="100" as="geometry">
            <mxPoint x="1030" y="280" as="sourcePoint" />
            <mxPoint x="1130" y="180" as="targetPoint" />
          </mxGeometry>
        </mxCell>
        <mxCell id="1g2dC_u7hxNs4hSqc75N-181" value="" style="fillColor=#CC4125;strokeColor=#660000" parent="XGFIz8w3da0hEXHN5y0l-1" vertex="1">
          <mxGeometry x="200" y="360" width="10" height="220" as="geometry" />
        </mxCell>
        <mxCell id="1g2dC_u7hxNs4hSqc75N-182" value="             &lt;&lt;callback&gt;&gt;                                " style="edgeStyle=elbowEdgeStyle;elbow=vertical;dashed=0;verticalLabelPosition=top;verticalAlign=bottom;align=right" parent="XGFIz8w3da0hEXHN5y0l-1" source="1g2dC_u7hxNs4hSqc75N-163" target="1g2dC_u7hxNs4hSqc75N-181" edge="1">
          <mxGeometry x="190" y="329.75887345679007" width="100" height="100" as="geometry">
            <mxPoint x="500" y="310" as="sourcePoint" />
            <mxPoint x="220" y="370" as="targetPoint" />
            <Array as="points" />
          </mxGeometry>
        </mxCell>
        <mxCell id="1g2dC_u7hxNs4hSqc75N-183" value="" style="edgeStyle=none;dashed=1;endArrow=none" parent="XGFIz8w3da0hEXHN5y0l-1" source="1g2dC_u7hxNs4hSqc75N-151" target="1g2dC_u7hxNs4hSqc75N-181" edge="1">
          <mxGeometry x="50" y="300" width="100" height="100" as="geometry">
            <mxPoint x="50" y="400" as="sourcePoint" />
            <mxPoint x="150" y="300" as="targetPoint" />
          </mxGeometry>
        </mxCell>
        <mxCell id="1g2dC_u7hxNs4hSqc75N-184" value="" style="edgeStyle=elbowEdgeStyle;elbow=vertical;endArrow=none" parent="XGFIz8w3da0hEXHN5y0l-1" source="1g2dC_u7hxNs4hSqc75N-181" edge="1">
          <mxGeometry x="60" y="310" width="100" height="100" as="geometry">
            <mxPoint x="60" y="410" as="sourcePoint" />
            <mxPoint x="150" y="360" as="targetPoint" />
          </mxGeometry>
        </mxCell>
        <mxCell id="1g2dC_u7hxNs4hSqc75N-185" value="{100..600ms}" style="edgeStyle=elbowEdgeStyle;elbow=horizontal;startArrow=open;endArrow=open;labelPosition=left;align=right" parent="XGFIz8w3da0hEXHN5y0l-1" edge="1">
          <mxGeometry x="61.20563271604938" y="290" width="100" height="100" as="geometry">
            <mxPoint x="181.20563271604937" y="280" as="sourcePoint" />
            <mxPoint x="181.20563271604937" y="360" as="targetPoint" />
          </mxGeometry>
        </mxCell>
        <mxCell id="1g2dC_u7hxNs4hSqc75N-186" value="" style="fillColor=#CC4125;strokeColor=#660000" parent="XGFIz8w3da0hEXHN5y0l-1" vertex="1">
          <mxGeometry x="342.5" y="464.1666666666667" width="10" height="95.83333333333331" as="geometry" />
        </mxCell>
        <mxCell id="1g2dC_u7hxNs4hSqc75N-187" value="" style="fillColor=#CC4125;strokeColor=#660000" parent="XGFIz8w3da0hEXHN5y0l-1" vertex="1">
          <mxGeometry x="1000" y="468.3333333333333" width="10" height="81.66666666666669" as="geometry" />
        </mxCell>
        <mxCell id="1g2dC_u7hxNs4hSqc75N-188" value="" style="edgeStyle=none;endArrow=none;dashed=1" parent="XGFIz8w3da0hEXHN5y0l-1" source="1g2dC_u7hxNs4hSqc75N-173" target="1g2dC_u7hxNs4hSqc75N-187" edge="1">
          <mxGeometry x="956.5711805555559" y="205" width="100" height="100" as="geometry">
            <mxPoint x="1031.7361111111113" y="150" as="sourcePoint" />
            <mxPoint x="1031.7361111111113" y="329.3942901234568" as="targetPoint" />
          </mxGeometry>
        </mxCell>
        <mxCell id="1g2dC_u7hxNs4hSqc75N-189" value="post_comments()" style="edgeStyle=elbowEdgeStyle;elbow=vertical;verticalLabelPosition=top;verticalAlign=bottom" parent="XGFIz8w3da0hEXHN5y0l-1" edge="1">
          <mxGeometry x="212.5" y="469.58333333333337" width="100" height="100" as="geometry">
            <mxPoint x="210" y="469.58333333333337" as="sourcePoint" />
            <mxPoint x="342.5" y="469.58333333333337" as="targetPoint" />
            <Array as="points" />
          </mxGeometry>
        </mxCell>
        <mxCell id="1g2dC_u7hxNs4hSqc75N-190" value="" style="edgeStyle=none;endArrow=none;dashed=1" parent="XGFIz8w3da0hEXHN5y0l-1" source="1g2dC_u7hxNs4hSqc75N-154" target="1g2dC_u7hxNs4hSqc75N-186" edge="1">
          <mxGeometry x="376.5711805555559" y="339.6971450617284" width="100" height="100" as="geometry">
            <mxPoint x="451.7361111111112" y="284.6971450617284" as="sourcePoint" />
            <mxPoint x="451.7361111111112" y="464.0914351851852" as="targetPoint" />
          </mxGeometry>
        </mxCell>
        <mxCell id="1g2dC_u7hxNs4hSqc75N-191" value="BeginRequest()" style="edgeStyle=elbowEdgeStyle;elbow=vertical;verticalLabelPosition=top;verticalAlign=bottom" parent="XGFIz8w3da0hEXHN5y0l-1" edge="1">
          <mxGeometry x="530" y="436.8055555555556" width="100" height="100" as="geometry">
            <mxPoint x="352.5" y="477.56944444444446" as="sourcePoint" />
            <mxPoint x="1000" y="477.56944444444446" as="targetPoint" />
            <Array as="points" />
          </mxGeometry>
        </mxCell>
        <mxCell id="1g2dC_u7hxNs4hSqc75N-192" value="" style="edgeStyle=elbowEdgeStyle;elbow=vertical;dashed=1;verticalLabelPosition=bottom;verticalAlign=top" parent="XGFIz8w3da0hEXHN5y0l-1" edge="1">
          <mxGeometry x="530" y="549.0779320987654" width="100" height="100" as="geometry">
            <mxPoint x="1000" y="541.7361111111111" as="sourcePoint" />
            <mxPoint x="352.49999999999994" y="541.7361111111111" as="targetPoint" />
            <Array as="points" />
          </mxGeometry>
        </mxCell>
        <mxCell id="1g2dC_u7hxNs4hSqc75N-193" value="&lt;&lt;javascript&gt;&gt;&#xa;:Proxy" style="shadow=1;fillColor=#A2C4C9;strokeColor=none" parent="XGFIz8w3da0hEXHN5y0l-1" vertex="1">
          <mxGeometry x="1090" y="462.08333333333337" width="105" height="50" as="geometry" />
        </mxCell>
        <mxCell id="1g2dC_u7hxNs4hSqc75N-194" value="" style="edgeStyle=none;endArrow=none;dashed=1" parent="XGFIz8w3da0hEXHN5y0l-1" source="1g2dC_u7hxNs4hSqc75N-193" target="1g2dC_u7hxNs4hSqc75N-195" edge="1">
          <mxGeometry x="1204.0711805555559" y="380.08680555555554" width="100" height="100" as="geometry">
            <mxPoint x="1279.2361111111113" y="325.08680555555554" as="sourcePoint" />
            <mxPoint x="1350" y="445.08680555555554" as="targetPoint" />
          </mxGeometry>
        </mxCell>
        <mxCell id="1g2dC_u7hxNs4hSqc75N-195" value="" style="fillColor=#CC4125;strokeColor=#660000" parent="XGFIz8w3da0hEXHN5y0l-1" vertex="1">
          <mxGeometry x="1137.5" y="530" width="10" height="90" as="geometry" />
        </mxCell>
        <mxCell id="1g2dC_u7hxNs4hSqc75N-196" value="" style="fillColor=#CC4125;strokeColor=#660000" parent="XGFIz8w3da0hEXHN5y0l-1" vertex="1">
          <mxGeometry x="1350" y="540" width="10" height="70" as="geometry" />
        </mxCell>
        <mxCell id="1g2dC_u7hxNs4hSqc75N-197" value="&lt;&lt;create&gt;&gt;" style="edgeStyle=elbowEdgeStyle;elbow=vertical;verticalLabelPosition=top;verticalAlign=bottom;dashed=1" parent="XGFIz8w3da0hEXHN5y0l-1" source="1g2dC_u7hxNs4hSqc75N-187" target="1g2dC_u7hxNs4hSqc75N-193" edge="1">
          <mxGeometry x="901.25" y="322.5" width="100" height="100" as="geometry">
            <mxPoint x="1031.25" y="351.8942901234568" as="sourcePoint" />
            <mxPoint x="1148.75" y="351.8942901234568" as="targetPoint" />
            <Array as="points" />
          </mxGeometry>
        </mxCell>
        <mxCell id="1g2dC_u7hxNs4hSqc75N-198" value="&lt;&lt;ajax&gt;&gt;" style="edgeStyle=elbowEdgeStyle;elbow=vertical;verticalLabelPosition=top;verticalAlign=bottom" parent="XGFIz8w3da0hEXHN5y0l-1" source="1g2dC_u7hxNs4hSqc75N-187" target="1g2dC_u7hxNs4hSqc75N-195" edge="1">
          <mxGeometry x="1065" y="359.5" width="100" height="100" as="geometry">
            <mxPoint x="1044.7839506172838" y="359.5" as="sourcePoint" />
            <mxPoint x="1195" y="359.5" as="targetPoint" />
            <Array as="points" />
          </mxGeometry>
        </mxCell>
        <mxCell id="1g2dC_u7hxNs4hSqc75N-199" value="postComments()" style="edgeStyle=elbowEdgeStyle;elbow=vertical;verticalLabelPosition=top;verticalAlign=bottom" parent="XGFIz8w3da0hEXHN5y0l-1" edge="1">
          <mxGeometry x="1225" y="309.5" width="100" height="100" as="geometry">
            <mxPoint x="1147.5" y="542.5" as="sourcePoint" />
            <mxPoint x="1350" y="542.5" as="targetPoint" />
            <Array as="points" />
          </mxGeometry>
        </mxCell>
        <mxCell id="1g2dC_u7hxNs4hSqc75N-200" value="&lt;&lt;json&gt;&gt;" style="edgeStyle=elbowEdgeStyle;elbow=vertical;dashed=1;verticalLabelPosition=bottom;verticalAlign=top" parent="XGFIz8w3da0hEXHN5y0l-1" edge="1">
          <mxGeometry x="1075" y="396" width="100" height="100" as="geometry">
            <mxPoint x="1350" y="606.5" as="sourcePoint" />
            <mxPoint x="1147.5" y="606.5" as="targetPoint" />
            <Array as="points" />
          </mxGeometry>
        </mxCell>
        <mxCell id="1g2dC_u7hxNs4hSqc75N-201" value="&lt;&lt;service&gt;&gt;&#xa;:GimqService" style="shadow=1;fillColor=#A2C4C9;strokeColor=none" parent="XGFIz8w3da0hEXHN5y0l-1" vertex="1">
          <mxGeometry x="1302.5" y="60" width="105" height="50" as="geometry" />
        </mxCell>
        <mxCell id="1g2dC_u7hxNs4hSqc75N-202" value="" style="edgeStyle=none;endArrow=none;dashed=1" parent="XGFIz8w3da0hEXHN5y0l-1" source="1g2dC_u7hxNs4hSqc75N-201" target="1g2dC_u7hxNs4hSqc75N-196" edge="1">
          <mxGeometry x="1174.0711805555559" y="210" width="100" height="100" as="geometry">
            <mxPoint x="1222.5" y="115" as="sourcePoint" />
            <mxPoint x="1222.5" y="445" as="targetPoint" />
          </mxGeometry>
        </mxCell>
        <mxCell id="1g2dC_u7hxNs4hSqc75N-203" value="" style="fillColor=#CC4125;strokeColor=#660000" parent="XGFIz8w3da0hEXHN5y0l-1" vertex="1">
          <mxGeometry x="200" y="600" width="10" height="130" as="geometry" />
        </mxCell>
        <mxCell id="1g2dC_u7hxNs4hSqc75N-204" value="" style="edgeStyle=elbowEdgeStyle;elbow=vertical;dashed=1;verticalLabelPosition=bottom;verticalAlign=top" parent="XGFIz8w3da0hEXHN5y0l-1" edge="1">
          <mxGeometry x="507.50000000000006" y="664.3418209876543" width="100" height="100" as="geometry">
            <mxPoint x="342.5" y="549.5" as="sourcePoint" />
            <mxPoint x="210" y="549.5" as="targetPoint" />
            <Array as="points" />
          </mxGeometry>
        </mxCell>
        <mxCell id="1g2dC_u7hxNs4hSqc75N-205" value="&lt;&lt;callback&gt;&gt;" style="edgeStyle=elbowEdgeStyle;elbow=vertical;dashed=1;verticalLabelPosition=bottom;verticalAlign=bottom" parent="XGFIz8w3da0hEXHN5y0l-1" source="1g2dC_u7hxNs4hSqc75N-195" target="1g2dC_u7hxNs4hSqc75N-203" edge="1">
          <mxGeometry x="540" y="559.0779320987654" width="100" height="100" as="geometry">
            <mxPoint x="1010" y="551.7361111111111" as="sourcePoint" />
            <mxPoint x="362.49999999999994" y="551.7361111111111" as="targetPoint" />
            <Array as="points" />
          </mxGeometry>
        </mxCell>
        <mxCell id="1g2dC_u7hxNs4hSqc75N-206" value="rt submit_changes" style="rounded=1;fontStyle=1;fillColor=#FFD966;strokeColor=none" parent="XGFIz8w3da0hEXHN5y0l-1" vertex="1">
          <mxGeometry x="50" y="20" width="150" height="30" as="geometry" />
        </mxCell>
        <mxCell id="1g2dC_u7hxNs4hSqc75N-207" value="opt" style="rounded=1;fontStyle=1;fillColor=#FFD966;strokeColor=none" parent="XGFIz8w3da0hEXHN5y0l-1" vertex="1">
          <mxGeometry x="152.5" y="420" width="87.5" height="30" as="geometry" />
        </mxCell>
        <mxCell id="1g2dC_u7hxNs4hSqc75N-208" value="Handle errors from Gimq" style="fillColor=#BFC8DB" parent="XGFIz8w3da0hEXHN5y0l-1" vertex="1">
          <mxGeometry x="190" y="625" width="310" height="60.55555555555554" as="geometry" />
        </mxCell>
        <mxCell id="1g2dC_u7hxNs4hSqc75N-209" value="ref" style="rounded=1;fontStyle=1;fillColor=#FFD966;strokeColor=none" parent="XGFIz8w3da0hEXHN5y0l-1" vertex="1">
          <mxGeometry x="196.25" y="632.8935185185186" width="53.75" height="25" as="geometry" />
        </mxCell>
        <mxCell id="1g2dC_u7hxNs4hSqc75N-210" value="" style="align=left;fillColor=#BFC8DB" parent="XGFIz8w3da0hEXHN5y0l-1" vertex="1">
          <mxGeometry x="189.99999999999997" y="699.7222222222223" width="1201.1944444444443" height="60.55555555555554" as="geometry" />
        </mxCell>
        <mxCell id="1g2dC_u7hxNs4hSqc75N-211" value="ref" style="rounded=1;fontStyle=1;fillColor=#FFD966;strokeColor=none" parent="XGFIz8w3da0hEXHN5y0l-1" vertex="1">
          <mxGeometry x="196.24999999999997" y="707.6157407407409" width="53.75" height="25" as="geometry" />
        </mxCell>
        <mxCell id="1g2dC_u7hxNs4hSqc75N-212" value="Request all changes" style="text;align=left" parent="XGFIz8w3da0hEXHN5y0l-1" vertex="1">
          <mxGeometry x="268.05555555555554" y="720.1157407407408" width="351.80555555555554" height="26" as="geometry" />
        </mxCell>
        <mxCell id="1g2dC_u7hxNs4hSqc75N-213" value="" style="edgeStyle=elbowEdgeStyle;elbow=vertical;endArrow=none" parent="XGFIz8w3da0hEXHN5y0l-1" edge="1">
          <mxGeometry x="59.999999999999986" y="419.7106481481482" width="100" height="100" as="geometry">
            <mxPoint x="200" y="469.7106481481482" as="sourcePoint" />
            <mxPoint x="149.99999999999997" y="469.7106481481482" as="targetPoint" />
          </mxGeometry>
        </mxCell>
        <mxCell id="1g2dC_u7hxNs4hSqc75N-214" value="" style="edgeStyle=elbowEdgeStyle;elbow=vertical;endArrow=none" parent="XGFIz8w3da0hEXHN5y0l-1" edge="1">
          <mxGeometry x="60" y="499.71064814814815" width="100" height="100" as="geometry">
            <mxPoint x="200.00000000000003" y="549.7106481481482" as="sourcePoint" />
            <mxPoint x="150" y="549.7106481481482" as="targetPoint" />
          </mxGeometry>
        </mxCell>
        <mxCell id="1g2dC_u7hxNs4hSqc75N-215" value="" style="edgeStyle=elbowEdgeStyle;elbow=vertical;endArrow=none" parent="XGFIz8w3da0hEXHN5y0l-1" edge="1">
          <mxGeometry x="59.999999999999986" y="559.7106481481482" width="100" height="100" as="geometry">
            <mxPoint x="200" y="609.7106481481482" as="sourcePoint" />
            <mxPoint x="149.99999999999997" y="609.7106481481482" as="targetPoint" />
          </mxGeometry>
        </mxCell>
        <mxCell id="1g2dC_u7hxNs4hSqc75N-216" value="" style="edgeStyle=elbowEdgeStyle;elbow=vertical;endArrow=none" parent="XGFIz8w3da0hEXHN5y0l-1" edge="1">
          <mxGeometry x="49.99999999999999" y="649.4328703703704" width="100" height="100" as="geometry">
            <mxPoint x="190.00000000000003" y="699.4328703703704" as="sourcePoint" />
            <mxPoint x="140" y="699.4328703703704" as="targetPoint" />
          </mxGeometry>
        </mxCell>
        <mxCell id="1g2dC_u7hxNs4hSqc75N-217" value="" style="edgeStyle=elbowEdgeStyle;elbow=vertical;endArrow=none" parent="XGFIz8w3da0hEXHN5y0l-1" edge="1">
          <mxGeometry x="49.99999999999993" y="709.9884259259259" width="100" height="100" as="geometry">
            <mxPoint x="189.99999999999994" y="759.9884259259259" as="sourcePoint" />
            <mxPoint x="139.99999999999994" y="759.9884259259259" as="targetPoint" />
          </mxGeometry>
        </mxCell>
        <mxCell id="1g2dC_u7hxNs4hSqc75N-218" value="{5..50ms}" style="edgeStyle=elbowEdgeStyle;elbow=horizontal;startArrow=open;endArrow=open;labelPosition=left;align=right" parent="XGFIz8w3da0hEXHN5y0l-1" edge="1">
          <mxGeometry x="41.44675925925927" y="479.1666666666667" width="100" height="100" as="geometry">
            <mxPoint x="161.44675925925927" y="469.1666666666667" as="sourcePoint" />
            <mxPoint x="161.44675925925927" y="549.1666666666667" as="targetPoint" />
          </mxGeometry>
        </mxCell>
        <mxCell id="1g2dC_u7hxNs4hSqc75N-219" value="{1..500ms}" style="edgeStyle=elbowEdgeStyle;elbow=horizontal;startArrow=open;endArrow=open;labelPosition=left;align=right" parent="XGFIz8w3da0hEXHN5y0l-1" edge="1">
          <mxGeometry x="42.89351851851853" y="560" width="100" height="100" as="geometry">
            <mxPoint x="161.44675925925927" y="550" as="sourcePoint" />
            <mxPoint x="161.44675925925927" y="610" as="targetPoint" />
          </mxGeometry>
        </mxCell>
        <mxCell id="1g2dC_u7hxNs4hSqc75N-220" value="{10..50ms}" style="edgeStyle=elbowEdgeStyle;elbow=horizontal;startArrow=open;endArrow=open;labelPosition=left;align=right" parent="XGFIz8w3da0hEXHN5y0l-1" edge="1">
          <mxGeometry width="100" height="100" as="geometry">
            <mxPoint x="153.94675925925927" y="700.2777777777778" as="sourcePoint" />
            <mxPoint x="153.94675925925927" y="760.2777777777778" as="targetPoint" />
            <mxPoint x="-4.236111111111107" y="-0.2777777777777883" as="offset" />
          </mxGeometry>
        </mxCell>
      </root>
    </mxGraphModel>
  </diagram>
  <diagram id="F5c1WfkP3QE1nYhfl6jK" name="uml_activity_diagrams_001">
    <mxGraphModel dx="1422" dy="737" grid="1" gridSize="10" guides="1" tooltips="1" connect="1" arrows="1" fold="1" page="1" pageScale="1" pageWidth="1920" pageHeight="1200" math="0" shadow="0">
      <root>
        <mxCell id="yICLJv2yHVj-MTCs5WyC-0" />
        <mxCell id="yICLJv2yHVj-MTCs5WyC-1" parent="yICLJv2yHVj-MTCs5WyC-0" />
        <mxCell id="yICLJv2yHVj-MTCs5WyC-2" value="Pool" style="swimlane;html=1;childLayout=stackLayout;startSize=20;rounded=0;shadow=0;comic=0;labelBackgroundColor=none;strokeWidth=1;fontFamily=Verdana;fontSize=12;align=center;" parent="yICLJv2yHVj-MTCs5WyC-1" vertex="1">
          <mxGeometry x="40" y="20" width="750" height="990" as="geometry" />
        </mxCell>
        <mxCell id="yICLJv2yHVj-MTCs5WyC-3" value="Lane 1" style="swimlane;html=1;startSize=20;" parent="yICLJv2yHVj-MTCs5WyC-2" vertex="1">
          <mxGeometry y="20" width="250" height="970" as="geometry" />
        </mxCell>
        <mxCell id="yICLJv2yHVj-MTCs5WyC-4" style="edgeStyle=none;rounded=0;html=1;labelBackgroundColor=none;startArrow=none;startFill=0;startSize=5;endArrow=classicThin;endFill=1;endSize=5;jettySize=auto;orthogonalLoop=1;strokeWidth=1;fontFamily=Verdana;fontSize=12" parent="yICLJv2yHVj-MTCs5WyC-3" source="yICLJv2yHVj-MTCs5WyC-5" target="yICLJv2yHVj-MTCs5WyC-8" edge="1">
          <mxGeometry relative="1" as="geometry" />
        </mxCell>
        <mxCell id="yICLJv2yHVj-MTCs5WyC-5" value="Action" style="rounded=1;whiteSpace=wrap;html=1;shadow=0;comic=0;labelBackgroundColor=none;strokeWidth=1;fontFamily=Verdana;fontSize=12;align=center;arcSize=50;" parent="yICLJv2yHVj-MTCs5WyC-3" vertex="1">
          <mxGeometry x="90" y="220" width="100" height="30" as="geometry" />
        </mxCell>
        <mxCell id="yICLJv2yHVj-MTCs5WyC-6" value="Action" style="rounded=1;whiteSpace=wrap;html=1;shadow=0;comic=0;labelBackgroundColor=none;strokeWidth=1;fontFamily=Verdana;fontSize=12;align=center;arcSize=50;" parent="yICLJv2yHVj-MTCs5WyC-3" vertex="1">
          <mxGeometry x="80" y="335" width="100" height="30" as="geometry" />
        </mxCell>
        <mxCell id="yICLJv2yHVj-MTCs5WyC-7" style="edgeStyle=none;rounded=0;html=1;labelBackgroundColor=none;startArrow=none;startFill=0;startSize=5;endArrow=classicThin;endFill=1;endSize=5;jettySize=auto;orthogonalLoop=1;strokeWidth=1;fontFamily=Verdana;fontSize=12" parent="yICLJv2yHVj-MTCs5WyC-3" source="yICLJv2yHVj-MTCs5WyC-8" target="yICLJv2yHVj-MTCs5WyC-6" edge="1">
          <mxGeometry relative="1" as="geometry" />
        </mxCell>
        <mxCell id="yICLJv2yHVj-MTCs5WyC-8" value="Object" style="rounded=0;whiteSpace=wrap;html=1;shadow=0;comic=0;labelBackgroundColor=none;strokeWidth=1;fontFamily=Verdana;fontSize=12;align=center;arcSize=50;" parent="yICLJv2yHVj-MTCs5WyC-3" vertex="1">
          <mxGeometry x="140" y="280" width="70" height="30" as="geometry" />
        </mxCell>
        <mxCell id="yICLJv2yHVj-MTCs5WyC-9" style="edgeStyle=none;rounded=0;html=1;labelBackgroundColor=none;startArrow=none;startFill=0;startSize=5;endArrow=oval;endFill=0;endSize=5;jettySize=auto;orthogonalLoop=1;strokeWidth=1;fontFamily=Verdana;fontSize=12;dashed=1;" parent="yICLJv2yHVj-MTCs5WyC-3" source="yICLJv2yHVj-MTCs5WyC-11" target="yICLJv2yHVj-MTCs5WyC-5" edge="1">
          <mxGeometry relative="1" as="geometry" />
        </mxCell>
        <mxCell id="yICLJv2yHVj-MTCs5WyC-10" style="edgeStyle=none;rounded=0;html=1;dashed=1;labelBackgroundColor=none;startArrow=none;startFill=0;startSize=5;endArrow=oval;endFill=0;endSize=5;jettySize=auto;orthogonalLoop=1;strokeWidth=1;fontFamily=Verdana;fontSize=12" parent="yICLJv2yHVj-MTCs5WyC-3" source="yICLJv2yHVj-MTCs5WyC-11" target="yICLJv2yHVj-MTCs5WyC-8" edge="1">
          <mxGeometry relative="1" as="geometry" />
        </mxCell>
        <mxCell id="yICLJv2yHVj-MTCs5WyC-11" value="Note" style="shape=note;whiteSpace=wrap;html=1;rounded=0;shadow=0;comic=0;labelBackgroundColor=none;strokeWidth=1;fontFamily=Verdana;fontSize=12;align=center;size=20;" parent="yICLJv2yHVj-MTCs5WyC-3" vertex="1">
          <mxGeometry x="20" y="274" width="85" height="42" as="geometry" />
        </mxCell>
        <mxCell id="yICLJv2yHVj-MTCs5WyC-12" value="Lane 2" style="swimlane;html=1;startSize=20;" parent="yICLJv2yHVj-MTCs5WyC-2" vertex="1">
          <mxGeometry x="250" y="20" width="250" height="970" as="geometry" />
        </mxCell>
        <mxCell id="yICLJv2yHVj-MTCs5WyC-13" value="" style="whiteSpace=wrap;html=1;rounded=0;shadow=0;comic=0;labelBackgroundColor=none;strokeWidth=1;fillColor=#000000;fontFamily=Verdana;fontSize=12;align=center;rotation=0;" parent="yICLJv2yHVj-MTCs5WyC-12" vertex="1">
          <mxGeometry x="30" y="160" width="147" height="10" as="geometry" />
        </mxCell>
        <mxCell id="yICLJv2yHVj-MTCs5WyC-14" style="edgeStyle=none;rounded=0;html=1;labelBackgroundColor=none;startArrow=none;startFill=0;startSize=5;endArrow=classicThin;endFill=1;endSize=5;jettySize=auto;orthogonalLoop=1;strokeWidth=1;fontFamily=Verdana;fontSize=12" parent="yICLJv2yHVj-MTCs5WyC-12" source="yICLJv2yHVj-MTCs5WyC-15" target="yICLJv2yHVj-MTCs5WyC-21" edge="1">
          <mxGeometry relative="1" as="geometry" />
        </mxCell>
        <mxCell id="yICLJv2yHVj-MTCs5WyC-15" value="Action" style="rounded=1;whiteSpace=wrap;html=1;shadow=0;comic=0;labelBackgroundColor=none;strokeWidth=1;fontFamily=Verdana;fontSize=12;align=center;arcSize=50;" parent="yICLJv2yHVj-MTCs5WyC-12" vertex="1">
          <mxGeometry x="64" y="450" width="100" height="30" as="geometry" />
        </mxCell>
        <mxCell id="yICLJv2yHVj-MTCs5WyC-16" style="edgeStyle=none;rounded=0;html=1;labelBackgroundColor=none;startArrow=none;startFill=0;startSize=5;endArrow=classicThin;endFill=1;endSize=5;jettySize=auto;orthogonalLoop=1;strokeWidth=1;fontFamily=Verdana;fontSize=12" parent="yICLJv2yHVj-MTCs5WyC-12" source="yICLJv2yHVj-MTCs5WyC-17" target="yICLJv2yHVj-MTCs5WyC-15" edge="1">
          <mxGeometry relative="1" as="geometry" />
        </mxCell>
        <mxCell id="yICLJv2yHVj-MTCs5WyC-17" value="" style="whiteSpace=wrap;html=1;rounded=0;shadow=0;comic=0;labelBackgroundColor=none;strokeWidth=1;fillColor=#000000;fontFamily=Verdana;fontSize=12;align=center;rotation=0;" parent="yICLJv2yHVj-MTCs5WyC-12" vertex="1">
          <mxGeometry x="40" y="410" width="147" height="10" as="geometry" />
        </mxCell>
        <mxCell id="yICLJv2yHVj-MTCs5WyC-18" style="edgeStyle=orthogonalEdgeStyle;rounded=0;html=1;entryX=0.25;entryY=0;labelBackgroundColor=none;startArrow=none;startFill=0;startSize=5;endArrow=classicThin;endFill=1;endSize=5;jettySize=auto;orthogonalLoop=1;strokeWidth=1;fontFamily=Verdana;fontSize=12" parent="yICLJv2yHVj-MTCs5WyC-12" source="yICLJv2yHVj-MTCs5WyC-19" target="yICLJv2yHVj-MTCs5WyC-17" edge="1">
          <mxGeometry relative="1" as="geometry" />
        </mxCell>
        <mxCell id="yICLJv2yHVj-MTCs5WyC-19" value="Object" style="rounded=0;whiteSpace=wrap;html=1;shadow=0;comic=0;labelBackgroundColor=none;strokeWidth=1;fontFamily=Verdana;fontSize=12;align=center;arcSize=50;" parent="yICLJv2yHVj-MTCs5WyC-12" vertex="1">
          <mxGeometry x="-40" y="365" width="70" height="30" as="geometry" />
        </mxCell>
        <mxCell id="yICLJv2yHVj-MTCs5WyC-20" style="edgeStyle=none;rounded=0;html=1;labelBackgroundColor=none;startArrow=none;startFill=0;startSize=5;endArrow=classicThin;endFill=1;endSize=5;jettySize=auto;orthogonalLoop=1;strokeWidth=1;fontFamily=Verdana;fontSize=12" parent="yICLJv2yHVj-MTCs5WyC-12" source="yICLJv2yHVj-MTCs5WyC-21" target="yICLJv2yHVj-MTCs5WyC-22" edge="1">
          <mxGeometry relative="1" as="geometry" />
        </mxCell>
        <mxCell id="yICLJv2yHVj-MTCs5WyC-21" value="Object" style="rounded=0;whiteSpace=wrap;html=1;shadow=0;comic=0;labelBackgroundColor=none;strokeWidth=1;fontFamily=Verdana;fontSize=12;align=center;arcSize=50;" parent="yICLJv2yHVj-MTCs5WyC-12" vertex="1">
          <mxGeometry x="125" y="510" width="70" height="30" as="geometry" />
        </mxCell>
        <mxCell id="yICLJv2yHVj-MTCs5WyC-22" value="Action" style="rounded=1;whiteSpace=wrap;html=1;shadow=0;comic=0;labelBackgroundColor=none;strokeWidth=1;fontFamily=Verdana;fontSize=12;align=center;arcSize=50;" parent="yICLJv2yHVj-MTCs5WyC-12" vertex="1">
          <mxGeometry x="85" y="580" width="100" height="30" as="geometry" />
        </mxCell>
        <mxCell id="yICLJv2yHVj-MTCs5WyC-23" style="edgeStyle=none;rounded=0;html=1;dashed=1;labelBackgroundColor=none;startArrow=none;startFill=0;startSize=5;endArrow=oval;endFill=0;endSize=5;jettySize=auto;orthogonalLoop=1;strokeWidth=1;fontFamily=Verdana;fontSize=12" parent="yICLJv2yHVj-MTCs5WyC-12" source="yICLJv2yHVj-MTCs5WyC-25" target="yICLJv2yHVj-MTCs5WyC-15" edge="1">
          <mxGeometry relative="1" as="geometry" />
        </mxCell>
        <mxCell id="yICLJv2yHVj-MTCs5WyC-24" style="edgeStyle=none;rounded=0;html=1;dashed=1;labelBackgroundColor=none;startArrow=none;startFill=0;startSize=5;endArrow=oval;endFill=0;endSize=5;jettySize=auto;orthogonalLoop=1;strokeWidth=1;fontFamily=Verdana;fontSize=12" parent="yICLJv2yHVj-MTCs5WyC-12" source="yICLJv2yHVj-MTCs5WyC-25" target="yICLJv2yHVj-MTCs5WyC-21" edge="1">
          <mxGeometry relative="1" as="geometry" />
        </mxCell>
        <mxCell id="yICLJv2yHVj-MTCs5WyC-25" value="Note" style="shape=note;whiteSpace=wrap;html=1;rounded=0;shadow=0;comic=0;labelBackgroundColor=none;strokeWidth=1;fontFamily=Verdana;fontSize=12;align=center;size=20;" parent="yICLJv2yHVj-MTCs5WyC-12" vertex="1">
          <mxGeometry x="10" y="510" width="90" height="55" as="geometry" />
        </mxCell>
        <mxCell id="yICLJv2yHVj-MTCs5WyC-26" style="edgeStyle=none;rounded=0;html=1;dashed=1;labelBackgroundColor=none;startArrow=none;startFill=0;startSize=5;endArrow=oval;endFill=0;endSize=5;jettySize=auto;orthogonalLoop=1;strokeWidth=1;fontFamily=Verdana;fontSize=12" parent="yICLJv2yHVj-MTCs5WyC-12" source="yICLJv2yHVj-MTCs5WyC-27" target="yICLJv2yHVj-MTCs5WyC-22" edge="1">
          <mxGeometry relative="1" as="geometry" />
        </mxCell>
        <mxCell id="yICLJv2yHVj-MTCs5WyC-27" value="Note" style="shape=note;whiteSpace=wrap;html=1;rounded=0;shadow=0;comic=0;labelBackgroundColor=none;strokeWidth=1;fontFamily=Verdana;fontSize=12;align=center;size=20;" parent="yICLJv2yHVj-MTCs5WyC-12" vertex="1">
          <mxGeometry x="40" y="648" width="105" height="55" as="geometry" />
        </mxCell>
        <mxCell id="yICLJv2yHVj-MTCs5WyC-28" value="Lane 3" style="swimlane;html=1;startSize=20;" parent="yICLJv2yHVj-MTCs5WyC-2" vertex="1">
          <mxGeometry x="500" y="20" width="250" height="970" as="geometry" />
        </mxCell>
        <mxCell id="yICLJv2yHVj-MTCs5WyC-29" style="edgeStyle=orthogonalEdgeStyle;rounded=0;html=1;labelBackgroundColor=none;startArrow=none;startFill=0;startSize=5;endArrow=classicThin;endFill=1;endSize=5;jettySize=auto;orthogonalLoop=1;strokeWidth=1;fontFamily=Verdana;fontSize=12" parent="yICLJv2yHVj-MTCs5WyC-28" source="yICLJv2yHVj-MTCs5WyC-30" target="yICLJv2yHVj-MTCs5WyC-31" edge="1">
          <mxGeometry relative="1" as="geometry" />
        </mxCell>
        <mxCell id="yICLJv2yHVj-MTCs5WyC-30" value="" style="ellipse;whiteSpace=wrap;html=1;rounded=0;shadow=0;comic=0;labelBackgroundColor=none;strokeWidth=1;fillColor=#000000;fontFamily=Verdana;fontSize=12;align=center;" parent="yICLJv2yHVj-MTCs5WyC-28" vertex="1">
          <mxGeometry x="80" y="40" width="40" height="40" as="geometry" />
        </mxCell>
        <mxCell id="yICLJv2yHVj-MTCs5WyC-31" value="Action" style="rounded=1;whiteSpace=wrap;html=1;shadow=0;comic=0;labelBackgroundColor=none;strokeWidth=1;fontFamily=Verdana;fontSize=12;align=center;arcSize=50;" parent="yICLJv2yHVj-MTCs5WyC-28" vertex="1">
          <mxGeometry x="50" y="110" width="100" height="30" as="geometry" />
        </mxCell>
        <mxCell id="yICLJv2yHVj-MTCs5WyC-32" style="rounded=0;html=1;labelBackgroundColor=none;startArrow=none;startFill=0;startSize=5;endArrow=classicThin;endFill=1;endSize=5;jettySize=auto;orthogonalLoop=1;strokeWidth=1;fontFamily=Verdana;fontSize=12" parent="yICLJv2yHVj-MTCs5WyC-28" source="yICLJv2yHVj-MTCs5WyC-33" target="yICLJv2yHVj-MTCs5WyC-37" edge="1">
          <mxGeometry relative="1" as="geometry" />
        </mxCell>
        <mxCell id="yICLJv2yHVj-MTCs5WyC-33" value="Action" style="rounded=1;whiteSpace=wrap;html=1;shadow=0;comic=0;labelBackgroundColor=none;strokeWidth=1;fontFamily=Verdana;fontSize=12;align=center;arcSize=50;" parent="yICLJv2yHVj-MTCs5WyC-28" vertex="1">
          <mxGeometry x="45" y="208" width="100" height="30" as="geometry" />
        </mxCell>
        <mxCell id="yICLJv2yHVj-MTCs5WyC-34" style="edgeStyle=none;rounded=0;html=1;labelBackgroundColor=none;startArrow=none;startFill=0;startSize=5;endArrow=classicThin;endFill=1;endSize=5;jettySize=auto;orthogonalLoop=1;strokeWidth=1;fontFamily=Verdana;fontSize=12" parent="yICLJv2yHVj-MTCs5WyC-28" source="yICLJv2yHVj-MTCs5WyC-35" target="yICLJv2yHVj-MTCs5WyC-38" edge="1">
          <mxGeometry relative="1" as="geometry" />
        </mxCell>
        <mxCell id="yICLJv2yHVj-MTCs5WyC-35" value="Action" style="rounded=1;whiteSpace=wrap;html=1;shadow=0;comic=0;labelBackgroundColor=none;strokeWidth=1;fontFamily=Verdana;fontSize=12;align=center;arcSize=50;" parent="yICLJv2yHVj-MTCs5WyC-28" vertex="1">
          <mxGeometry x="85" y="330" width="100" height="30" as="geometry" />
        </mxCell>
        <mxCell id="yICLJv2yHVj-MTCs5WyC-36" style="edgeStyle=none;rounded=0;html=1;labelBackgroundColor=none;startArrow=none;startFill=0;startSize=5;endArrow=classicThin;endFill=1;endSize=5;jettySize=auto;orthogonalLoop=1;strokeWidth=1;fontFamily=Verdana;fontSize=12" parent="yICLJv2yHVj-MTCs5WyC-28" source="yICLJv2yHVj-MTCs5WyC-37" target="yICLJv2yHVj-MTCs5WyC-35" edge="1">
          <mxGeometry relative="1" as="geometry" />
        </mxCell>
        <mxCell id="yICLJv2yHVj-MTCs5WyC-37" value="Object" style="rounded=0;whiteSpace=wrap;html=1;shadow=0;comic=0;labelBackgroundColor=none;strokeWidth=1;fontFamily=Verdana;fontSize=12;align=center;arcSize=50;" parent="yICLJv2yHVj-MTCs5WyC-28" vertex="1">
          <mxGeometry x="15" y="268" width="70" height="30" as="geometry" />
        </mxCell>
        <mxCell id="yICLJv2yHVj-MTCs5WyC-38" value="Object" style="rounded=0;whiteSpace=wrap;html=1;shadow=0;comic=0;labelBackgroundColor=none;strokeWidth=1;fontFamily=Verdana;fontSize=12;align=center;arcSize=50;" parent="yICLJv2yHVj-MTCs5WyC-28" vertex="1">
          <mxGeometry x="-35" y="360" width="70" height="30" as="geometry" />
        </mxCell>
        <mxCell id="yICLJv2yHVj-MTCs5WyC-39" style="edgeStyle=none;rounded=0;html=1;labelBackgroundColor=none;startArrow=none;startFill=0;startSize=5;endArrow=classicThin;endFill=1;endSize=5;jettySize=auto;orthogonalLoop=1;strokeWidth=1;fontFamily=Verdana;fontSize=12" parent="yICLJv2yHVj-MTCs5WyC-28" source="yICLJv2yHVj-MTCs5WyC-40" target="yICLJv2yHVj-MTCs5WyC-42" edge="1">
          <mxGeometry relative="1" as="geometry" />
        </mxCell>
        <mxCell id="yICLJv2yHVj-MTCs5WyC-40" value="Object" style="rounded=0;whiteSpace=wrap;html=1;shadow=0;comic=0;labelBackgroundColor=none;strokeWidth=1;fontFamily=Verdana;fontSize=12;align=center;arcSize=50;" parent="yICLJv2yHVj-MTCs5WyC-28" vertex="1">
          <mxGeometry x="-35" y="610" width="70" height="30" as="geometry" />
        </mxCell>
        <mxCell id="yICLJv2yHVj-MTCs5WyC-41" style="edgeStyle=none;rounded=0;html=1;labelBackgroundColor=none;startArrow=none;startFill=0;startSize=5;endArrow=classicThin;endFill=1;endSize=5;jettySize=auto;orthogonalLoop=1;strokeWidth=1;fontFamily=Verdana;fontSize=12" parent="yICLJv2yHVj-MTCs5WyC-28" source="yICLJv2yHVj-MTCs5WyC-42" target="yICLJv2yHVj-MTCs5WyC-44" edge="1">
          <mxGeometry relative="1" as="geometry" />
        </mxCell>
        <mxCell id="yICLJv2yHVj-MTCs5WyC-42" value="Action" style="rounded=1;whiteSpace=wrap;html=1;shadow=0;comic=0;labelBackgroundColor=none;strokeWidth=1;fontFamily=Verdana;fontSize=12;align=center;arcSize=50;" parent="yICLJv2yHVj-MTCs5WyC-28" vertex="1">
          <mxGeometry x="70" y="670" width="100" height="30" as="geometry" />
        </mxCell>
        <mxCell id="yICLJv2yHVj-MTCs5WyC-43" style="edgeStyle=none;rounded=0;html=1;labelBackgroundColor=none;startArrow=none;startFill=0;startSize=5;endArrow=classicThin;endFill=1;endSize=5;jettySize=auto;orthogonalLoop=1;strokeWidth=1;fontFamily=Verdana;fontSize=12" parent="yICLJv2yHVj-MTCs5WyC-28" source="yICLJv2yHVj-MTCs5WyC-44" target="yICLJv2yHVj-MTCs5WyC-45" edge="1">
          <mxGeometry relative="1" as="geometry" />
        </mxCell>
        <mxCell id="yICLJv2yHVj-MTCs5WyC-44" value="Action" style="rounded=1;whiteSpace=wrap;html=1;shadow=0;comic=0;labelBackgroundColor=none;strokeWidth=1;fontFamily=Verdana;fontSize=12;align=center;arcSize=50;" parent="yICLJv2yHVj-MTCs5WyC-28" vertex="1">
          <mxGeometry x="70" y="810" width="100" height="30" as="geometry" />
        </mxCell>
        <mxCell id="yICLJv2yHVj-MTCs5WyC-45" value="" style="shape=mxgraph.bpmn.shape;html=1;verticalLabelPosition=bottom;labelBackgroundColor=#ffffff;verticalAlign=top;perimeter=ellipsePerimeter;outline=end;symbol=terminate;rounded=0;shadow=0;comic=0;strokeWidth=1;fontFamily=Verdana;fontSize=12;align=center;" parent="yICLJv2yHVj-MTCs5WyC-28" vertex="1">
          <mxGeometry x="100" y="880" width="40" height="40" as="geometry" />
        </mxCell>
        <mxCell id="yICLJv2yHVj-MTCs5WyC-46" style="edgeStyle=none;rounded=0;html=1;dashed=1;labelBackgroundColor=none;startArrow=none;startFill=0;startSize=5;endArrow=oval;endFill=0;endSize=5;jettySize=auto;orthogonalLoop=1;strokeWidth=1;fontFamily=Verdana;fontSize=12" parent="yICLJv2yHVj-MTCs5WyC-28" source="yICLJv2yHVj-MTCs5WyC-48" target="yICLJv2yHVj-MTCs5WyC-33" edge="1">
          <mxGeometry relative="1" as="geometry" />
        </mxCell>
        <mxCell id="yICLJv2yHVj-MTCs5WyC-47" style="edgeStyle=none;rounded=0;html=1;dashed=1;labelBackgroundColor=none;startArrow=none;startFill=0;startSize=5;endArrow=oval;endFill=0;endSize=5;jettySize=auto;orthogonalLoop=1;strokeWidth=1;fontFamily=Verdana;fontSize=12" parent="yICLJv2yHVj-MTCs5WyC-28" source="yICLJv2yHVj-MTCs5WyC-48" target="yICLJv2yHVj-MTCs5WyC-37" edge="1">
          <mxGeometry relative="1" as="geometry" />
        </mxCell>
        <mxCell id="yICLJv2yHVj-MTCs5WyC-48" value="Note" style="shape=note;whiteSpace=wrap;html=1;rounded=0;shadow=0;comic=0;labelBackgroundColor=none;strokeWidth=1;fontFamily=Verdana;fontSize=12;align=center;size=20;" parent="yICLJv2yHVj-MTCs5WyC-28" vertex="1">
          <mxGeometry x="160" y="256" width="75" height="44" as="geometry" />
        </mxCell>
        <mxCell id="yICLJv2yHVj-MTCs5WyC-49" style="edgeStyle=none;rounded=0;html=1;dashed=1;labelBackgroundColor=none;startArrow=none;startFill=0;startSize=5;endArrow=oval;endFill=0;endSize=5;jettySize=auto;orthogonalLoop=1;strokeWidth=1;fontFamily=Verdana;fontSize=12" parent="yICLJv2yHVj-MTCs5WyC-28" source="yICLJv2yHVj-MTCs5WyC-51" target="yICLJv2yHVj-MTCs5WyC-35" edge="1">
          <mxGeometry relative="1" as="geometry" />
        </mxCell>
        <mxCell id="yICLJv2yHVj-MTCs5WyC-50" style="edgeStyle=none;rounded=0;html=1;dashed=1;labelBackgroundColor=none;startArrow=none;startFill=0;startSize=5;endArrow=oval;endFill=0;endSize=5;jettySize=auto;orthogonalLoop=1;strokeWidth=1;fontFamily=Verdana;fontSize=12" parent="yICLJv2yHVj-MTCs5WyC-28" source="yICLJv2yHVj-MTCs5WyC-51" target="yICLJv2yHVj-MTCs5WyC-38" edge="1">
          <mxGeometry relative="1" as="geometry" />
        </mxCell>
        <mxCell id="yICLJv2yHVj-MTCs5WyC-51" value="Note" style="shape=note;whiteSpace=wrap;html=1;rounded=0;shadow=0;comic=0;labelBackgroundColor=none;strokeWidth=1;fontFamily=Verdana;fontSize=12;align=center;size=20;" parent="yICLJv2yHVj-MTCs5WyC-28" vertex="1">
          <mxGeometry x="110" y="415" width="105" height="55" as="geometry" />
        </mxCell>
        <mxCell id="yICLJv2yHVj-MTCs5WyC-52" style="edgeStyle=none;rounded=0;html=1;dashed=1;labelBackgroundColor=none;startArrow=none;startFill=0;startSize=5;endArrow=oval;endFill=0;endSize=5;jettySize=auto;orthogonalLoop=1;strokeWidth=1;fontFamily=Verdana;fontSize=12" parent="yICLJv2yHVj-MTCs5WyC-28" source="yICLJv2yHVj-MTCs5WyC-54" target="yICLJv2yHVj-MTCs5WyC-42" edge="1">
          <mxGeometry relative="1" as="geometry" />
        </mxCell>
        <mxCell id="yICLJv2yHVj-MTCs5WyC-53" style="edgeStyle=none;rounded=0;html=1;dashed=1;labelBackgroundColor=none;startArrow=none;startFill=0;startSize=5;endArrow=oval;endFill=0;endSize=5;jettySize=auto;orthogonalLoop=1;strokeWidth=1;fontFamily=Verdana;fontSize=12" parent="yICLJv2yHVj-MTCs5WyC-28" source="yICLJv2yHVj-MTCs5WyC-54" target="yICLJv2yHVj-MTCs5WyC-40" edge="1">
          <mxGeometry relative="1" as="geometry" />
        </mxCell>
        <mxCell id="yICLJv2yHVj-MTCs5WyC-54" value="Note" style="shape=note;whiteSpace=wrap;html=1;rounded=0;shadow=0;comic=0;labelBackgroundColor=none;strokeWidth=1;fontFamily=Verdana;fontSize=12;align=center;size=20;" parent="yICLJv2yHVj-MTCs5WyC-28" vertex="1">
          <mxGeometry x="120" y="590" width="115" height="50" as="geometry" />
        </mxCell>
        <mxCell id="yICLJv2yHVj-MTCs5WyC-55" style="edgeStyle=none;rounded=0;html=1;dashed=1;labelBackgroundColor=none;startArrow=none;startFill=0;startSize=5;endArrow=oval;endFill=0;endSize=5;jettySize=auto;orthogonalLoop=1;strokeWidth=1;fontFamily=Verdana;fontSize=12" parent="yICLJv2yHVj-MTCs5WyC-28" source="yICLJv2yHVj-MTCs5WyC-56" target="yICLJv2yHVj-MTCs5WyC-44" edge="1">
          <mxGeometry relative="1" as="geometry" />
        </mxCell>
        <mxCell id="yICLJv2yHVj-MTCs5WyC-56" value="Note" style="shape=note;whiteSpace=wrap;html=1;rounded=0;shadow=0;comic=0;labelBackgroundColor=none;strokeWidth=1;fontFamily=Verdana;fontSize=12;align=center;size=20;" parent="yICLJv2yHVj-MTCs5WyC-28" vertex="1">
          <mxGeometry x="150" y="740" width="95" height="45" as="geometry" />
        </mxCell>
        <mxCell id="yICLJv2yHVj-MTCs5WyC-57" style="edgeStyle=orthogonalEdgeStyle;rounded=0;html=1;entryX=0.5;entryY=0;labelBackgroundColor=none;startArrow=none;startFill=0;startSize=5;endArrow=classicThin;endFill=1;endSize=5;jettySize=auto;orthogonalLoop=1;strokeWidth=1;fontFamily=Verdana;fontSize=12" parent="yICLJv2yHVj-MTCs5WyC-2" source="yICLJv2yHVj-MTCs5WyC-31" target="yICLJv2yHVj-MTCs5WyC-13" edge="1">
          <mxGeometry relative="1" as="geometry">
            <Array as="points">
              <mxPoint x="354" y="145" />
            </Array>
          </mxGeometry>
        </mxCell>
        <mxCell id="yICLJv2yHVj-MTCs5WyC-58" style="edgeStyle=orthogonalEdgeStyle;rounded=0;html=1;exitX=0.75;exitY=1;labelBackgroundColor=none;startArrow=none;startFill=0;startSize=5;endArrow=classicThin;endFill=1;endSize=5;jettySize=auto;orthogonalLoop=1;strokeWidth=1;fontFamily=Verdana;fontSize=12" parent="yICLJv2yHVj-MTCs5WyC-2" source="yICLJv2yHVj-MTCs5WyC-13" target="yICLJv2yHVj-MTCs5WyC-33" edge="1">
          <mxGeometry relative="1" as="geometry">
            <Array as="points">
              <mxPoint x="390" y="210" />
              <mxPoint x="595" y="210" />
            </Array>
          </mxGeometry>
        </mxCell>
        <mxCell id="yICLJv2yHVj-MTCs5WyC-59" style="edgeStyle=orthogonalEdgeStyle;rounded=0;html=1;exitX=0.25;exitY=1;entryX=0.5;entryY=0;labelBackgroundColor=none;startArrow=none;startFill=0;startSize=5;endArrow=classicThin;endFill=1;endSize=5;jettySize=auto;orthogonalLoop=1;strokeWidth=1;fontFamily=Verdana;fontSize=12" parent="yICLJv2yHVj-MTCs5WyC-2" source="yICLJv2yHVj-MTCs5WyC-13" target="yICLJv2yHVj-MTCs5WyC-5" edge="1">
          <mxGeometry relative="1" as="geometry">
            <Array as="points">
              <mxPoint x="317" y="210" />
              <mxPoint x="140" y="210" />
            </Array>
          </mxGeometry>
        </mxCell>
        <mxCell id="yICLJv2yHVj-MTCs5WyC-60" style="edgeStyle=orthogonalEdgeStyle;rounded=0;html=1;entryX=0.75;entryY=0;labelBackgroundColor=none;startArrow=none;startFill=0;startSize=5;endArrow=classicThin;endFill=1;endSize=5;jettySize=auto;orthogonalLoop=1;strokeWidth=1;fontFamily=Verdana;fontSize=12" parent="yICLJv2yHVj-MTCs5WyC-2" source="yICLJv2yHVj-MTCs5WyC-38" target="yICLJv2yHVj-MTCs5WyC-17" edge="1">
          <mxGeometry relative="1" as="geometry" />
        </mxCell>
        <mxCell id="yICLJv2yHVj-MTCs5WyC-61" style="edgeStyle=none;rounded=0;html=1;labelBackgroundColor=none;startArrow=none;startFill=0;startSize=5;endArrow=classicThin;endFill=1;endSize=5;jettySize=auto;orthogonalLoop=1;strokeWidth=1;fontFamily=Verdana;fontSize=12" parent="yICLJv2yHVj-MTCs5WyC-2" source="yICLJv2yHVj-MTCs5WyC-6" target="yICLJv2yHVj-MTCs5WyC-19" edge="1">
          <mxGeometry relative="1" as="geometry" />
        </mxCell>
        <mxCell id="yICLJv2yHVj-MTCs5WyC-62" style="edgeStyle=none;rounded=0;html=1;labelBackgroundColor=none;startArrow=none;startFill=0;startSize=5;endArrow=classicThin;endFill=1;endSize=5;jettySize=auto;orthogonalLoop=1;strokeWidth=1;fontFamily=Verdana;fontSize=12" parent="yICLJv2yHVj-MTCs5WyC-2" source="yICLJv2yHVj-MTCs5WyC-22" target="yICLJv2yHVj-MTCs5WyC-40" edge="1">
          <mxGeometry relative="1" as="geometry" />
        </mxCell>
        <mxCell id="yICLJv2yHVj-MTCs5WyC-63" style="edgeStyle=none;rounded=0;html=1;dashed=1;labelBackgroundColor=none;startArrow=none;startFill=0;startSize=5;endArrow=oval;endFill=0;endSize=5;jettySize=auto;orthogonalLoop=1;strokeWidth=1;fontFamily=Verdana;fontSize=12" parent="yICLJv2yHVj-MTCs5WyC-2" source="yICLJv2yHVj-MTCs5WyC-27" target="yICLJv2yHVj-MTCs5WyC-40" edge="1">
          <mxGeometry relative="1" as="geometry" />
        </mxCell>
      </root>
    </mxGraphModel>
  </diagram>
</mxfile>
